<?xml version="1.0" encoding="UTF-8"?>
<svg version="1.1" viewBox="0 0 1144 398" xmlns="http://www.w3.org/2000/svg">
    <g fill="none" fill-rule="evenodd">
        <g fill-rule="nonzero">
            <g transform="translate(438 90)">
                <polygon points="94 95.13 71.46 95.13 71.46 60.34 73.54 58.26 26 58.26 28.08 60.34 28.08 95.13 5.58 95.13 5.58 1.51 28.12 1.51 28.12 36.3 26 38.38 73.5 38.38 71.42 36.3 71.42 1.51 94 1.51" fill="#ffffff"/>
                <path d="m160.34 96.29c-32.48 0-49.58-19.65-49.58-47.51 0-27.51 17.1-48.43 49.58-48.43 32.71 0 49.7 20.81 49.7 48.43-0.04 27.86-17.68 47.51-49.7 47.51zm0.12-76.06c-19 0-26.82 11.68-26.82 28.55 0 16.53 7.86 27.63 26.82 27.63s26.7-11.1 26.7-27.63-7.75-28.55-26.7-28.55z" fill="#ffffff"/>
                <path d="m267.48 96.29c-17.68 0-33.75-5.78-45.31-16.42l15.38-15.48c7.63 7.39 21.15 12.13 31.9 12.13 13.64 0 18.26-3.47 18.26-8.2 0-1.85-1.73-6.25-13.75-9.14-2.08-0.46-15.26-3.58-17.34-4.16-16.65-4-32.71-10.28-32.71-26.81 0-15.72 15.37-27.86 42.42-27.86 17.91 0 32.59 6.13 42.53 16.3l-15.6 15.35c-5.55-6.47-17-12-27.28-12-13.29-0.12-19.19 3.58-19.19 7.63 0 3.58 4.4 5.2 18.38 8.67 2.08 0.58 12.83 3.23 15 3.7 19.88 4.62 30.4 15.37 30.4 28.32 0.03 14.79-13.57 27.97-43.09 27.97z" fill="#ffffff"/>
                <polygon points="406 21.27 372.43 21.27 373.59 23.35 373.59 95.13 351.05 95.13 351.05 23.35 352.2 21.27 318.68 21.27 318.68 1.51 406 1.51" fill="#ffffff"/>
                <polygon points="441.78 95.13 419.24 95.13 419.24 1.51 441.78 1.51" fill="#ffffff"/>
                <polygon points="551.58 95.13 533 95.13 493.91 49 485.91 37.21 485.68 37.21 485.68 95.12 463.14 95.12 463.14 1.51 481.75 1.51 521.53 48 528.81 58.87 529.04 58.87 529.04 1.51 551.58 1.51" fill="#ffffff"/>
                <path d="m665.43 95.25h-19.77v-7.25c-5.78 5-16.41 8.33-26 8.33-32.48 0-51.32-18.61-51.32-47.16 0-29.13 19.3-48.78 52-48.78 16.88 0 31 5.55 39.3 14.57l-15.26 15.25c-5.66-6.7-13.75-10-23.92-10-20 0-29.25 10.4-29.25 29 0 17.68 8.67 27.39 28.55 27.39 13.3 0 22.77-6.59 24.51-16.3l2.08-2.08h-32.83v-19.84h51.9l0.01 56.87z" fill="#ffffff"/>
                <path d="m694.2 96.17c-7.51 0-11.44-5.2-11.44-12.37s3.93-12.25 11.44-12.25 11.45 5.2 11.45 12.25-4.05 12.37-11.45 12.37z" fill="#ffffff"/>
                <path d="m115.13 230.74h-30.39l-16-30c-4.19-7.67-9.9-11.3-22.59-11.3h-20.8l2.37 2.37v38.9h-27.18v-112.89h56.46c22.86 0 44.88 11.15 44.88 36 0 11-8.78 22.3-18.54 26.76v0.28c3.77 1.81 7.95 5.58 11.16 11.57l20.63 38.31zm-58.13-89.08h-31.79l2.51 2.51v20.91l-2.51 2.51h30.25c13.94 0 18.82-7 18.82-12.83 0-7.67-5.28-13.1-17.28-13.1z" fill="#ffffff"/>
                <polygon points="225.26 230.74 128.37 230.74 128.37 117.82 225.26 117.82 225.26 141.66 153.05 141.66 155.56 144.17 155.56 159.78 153.05 162.29 218.57 162.29 218.57 186.29 153.05 186.29 155.56 188.8 155.56 204.41 153.05 206.92 225.26 206.92" fill="#ffffff"/>
                <polygon points="365.78 117.82 313.09 230.74 289.81 230.74 237.11 117.82 267.22 117.82 297.61 185.43 301.52 196.72 301.79 196.72 305.42 185.43 336 117.82" fill="#ffffff"/>
                <polygon points="408.3 230.74 381.12 230.74 381.12 117.82 408.3 117.82" fill="#ffffff"/>
                <polygon points="531 230.74 434.09 230.74 434.09 117.82 531 117.82 531 141.66 458.78 141.66 461.29 144.17 461.29 159.78 458.78 162.29 524.31 162.29 524.31 186.29 458.78 186.29 461.29 188.8 461.29 204.41 458.78 206.92 531 206.92" fill="#ffffff"/>
                <polygon points="700.63 117.82 666.76 230.74 638.76 230.74 624.68 182.08 622.31 169.26 622 169.26 619.35 182.08 605.41 230.74 578.1 230.74 544.22 117.82 572.94 117.82 589.67 176.93 592.46 189.47 592.74 189.47 595.24 176.93 612.24 117.82 632.73 117.82 649.73 176.93 652.52 189.2 652.8 189.2 655.17 176.93 672.17 117.82" fill="#ffffff"/>
            </g>
            <path d="m198.46 0.81c-109.29 0-198.2 88.9-198.2 198.19s88.91 198.19 198.2 198.19c46.986 0.03743 92.443-16.696 128.19-47.19l41.26 19.5 28.74 13.59v-184.09c0-109.29-88.9-198.19-198.19-198.19zm169.45 336.94l-19.54-9.24-27.14-12.82c-7.2149 7.5816-15.111 14.484-23.59 20.62-28.832 20.926-63.554 32.178-99.18 32.14-93.46 0-169.46-76.02-169.46-169.45s76-169.45 169.45-169.45 169.45 76 169.45 169.45l0.01 138.75z" fill="#ffffff"/>
            <path d="m269 162.4c-0.35333 0.62-0.71333 1.24-1.08 1.86-1.6133 2.72-3.34 5.4033-5.18 8.05l-1.11 1.57c-0.44 0.61-0.89 1.22-1.34 1.82s-1 1.39-1.58 2.08c-0.9 1.18-1.84 2.34-2.78 3.5l-1.52 1.81c-0.51 0.6-1 1.21-1.55 1.79s-1.05 1.2-1.58 1.79-0.87 1-1.3 1.42-0.82 0.88-1.23 1.31c-1.8867 2-3.8467 3.9767-5.88 5.93l-1.13 1.08c-0.65 0.62-1.32 1.23-2 1.83-2.3 2.09-4.66 4.15-7.09 6.15-0.41 0.34-0.82 0.69-1.24 1-0.95 0.78-1.92 1.55-2.89 2.3s-1.74 1.34-2.62 2c-0.11 0.07-0.22 0.16-0.33 0.24-1 0.74-2 1.47-3 2.2s-1.84 1.32-2.78 2l-0.26 0.18c-1 0.71-2.05 1.41-3.09 2.09s-1.94 1.3-2.94 1.93-2.28 1.45-3.43 2.16-2 1.21-3 1.81l-0.13 0.07c-0.94 0.56-1.88 1.1-2.84 1.64-1.4 0.8-2.8 1.58-4.23 2.33-0.79 0.43-1.59 0.85-2.39 1.27l-6 3-2.09 1c-2.51 1.17-5.05 2.29-7.6 3.34l-1.82 0.74c-1.69 0.69-3.38 1.34-5.08 2l-1.94 0.7-2.35 0.82c-0.67 0.24-1.35 0.46-2 0.68-1.68 0.56-3.35 1.09-5 1.58l-1.55 0.46c-0.78 0.22-1.55 0.44-2.33 0.64-1.1 0.31-2.21 0.6-3.31 0.88l-1.27 0.31c-0.92 0.23-1.84 0.44-2.76 0.64s-2 0.46-3 0.65l-1.95 0.38c-1.7067 0.34667-3.42 0.65-5.14 0.91l3-23.36-51.29-52.72 72.75-13.47 35.93-63.17 35.93 63.17s42.44-3.57 38.28-64.28c8.93 23.38 4.68 47.67-7.89 69.89z" fill="#ffffff"/>
            <path d="m260.13 223l9.28 72.45-66.76-31.45-66.76 31.4 5.44-42.5c65.16-8.25 127.75-54 159.89-84.51 0 0-12.22 31.81-41.09 54.61z" fill="#ffffff"/>
        </g>
    </g>
</svg>