<svg xmlns="http://www.w3.org/2000/svg" width="550" height="400" stroke="#aaa" fill="none" stroke-width="21"><path d="M499 55.96c-78-15.324-155.667-10.993-233 12.992s-148.667 26.65-214 7.995v264.81c65.333 18.656 136.667 15.99 214-7.995s155-28.317 233-12.992V55.96" stroke-linecap="round" stroke-linejoin="round"/><path d="M52 162c38.66 0 69-27.056 69-74m-2 266c0-46.808-28.34-74-67-74M432 47c0 46.808 28.34 74 67 74m0 118c-38.66 0-73 26.056-73 73"/><ellipse cx="276" cy="201" rx="60" ry="74"/></svg>
