<svg id="server" xmlns="http://www.w3.org/2000/svg" xmlns:xlink="http://www.w3.org/1999/xlink" viewBox="0 0 59.78 53.79"><defs><style>.cls-1,.cls-3,.cls-8{opacity:0.3;}.cls-2,.cls-3{fill:#1f4e66;}.cls-4{fill:url(#linear-gradient);}.cls-5{fill:#f5f9fc;}.cls-6{fill:url(#linear-gradient-2);}.cls-7{fill:#b5c0c9;}.cls-8,.cls-9{fill:#fff;}.cls-9{opacity:0.8;}.cls-10{fill:#51b5c2;}.cls-11{fill:#3b7db3;}.cls-12{fill:#1e5685;}.cls-13{fill:url(#linear-gradient-3);}.cls-14{fill:url(#linear-gradient-4);}.cls-15{fill:url(#linear-gradient-5);}.cls-16{fill:url(#linear-gradient-6);}.cls-17{fill:url(#linear-gradient-7);}.cls-18{fill:url(#linear-gradient-8);}.cls-19{fill:url(#linear-gradient-9);}.cls-20{fill:url(#linear-gradient-10);}.cls-21{fill:url(#linear-gradient-11);}.cls-22{fill:url(#linear-gradient-12);}.cls-23{fill:url(#linear-gradient-13);}.cls-24{fill:url(#linear-gradient-14);}.cls-25{fill:url(#linear-gradient-15);}.cls-26{fill:#2a4269;}.cls-27{fill:url(#linear-gradient-16);}.cls-28{fill:url(#linear-gradient-17);}.cls-29{fill:url(#linear-gradient-18);}.cls-30{fill:url(#linear-gradient-19);}.cls-31{fill:url(#linear-gradient-20);}.cls-32{fill:url(#linear-gradient-21);}.cls-33{fill:url(#linear-gradient-22);}.cls-34{fill:url(#linear-gradient-23);}.cls-35{fill:url(#linear-gradient-24);}.cls-36{fill:url(#linear-gradient-25);}.cls-37{fill:url(#linear-gradient-26);}.cls-38{fill:url(#linear-gradient-27);}.cls-39{fill:url(#linear-gradient-28);}.cls-40{fill:url(#linear-gradient-29);}.cls-41{fill:url(#linear-gradient-30);}.cls-42{fill:url(#linear-gradient-31);}.cls-43{fill:url(#linear-gradient-32);}.cls-44{fill:url(#linear-gradient-33);}.cls-45{fill:url(#linear-gradient-34);}.cls-46{fill:url(#linear-gradient-35);}.cls-47{fill:url(#linear-gradient-36);}.cls-48{fill:url(#linear-gradient-37);}.cls-49{fill:url(#linear-gradient-38);}.cls-50{fill:url(#linear-gradient-39);}.cls-51{fill:url(#linear-gradient-40);}.cls-52{fill:url(#linear-gradient-69);}.cls-53{fill:url(#linear-gradient-70);}.cls-54{fill:url(#linear-gradient-71);}.cls-55{fill:url(#linear-gradient-72);}.cls-56{fill:url(#linear-gradient-73);}.cls-57{fill:url(#linear-gradient-74);}.cls-58{fill:url(#linear-gradient-75);}.cls-59{fill:url(#linear-gradient-76);}.cls-60{fill:url(#linear-gradient-77);}.cls-61{fill:url(#linear-gradient-78);}.cls-62{fill:url(#linear-gradient-79);}.cls-63{fill:url(#linear-gradient-80);}.cls-64{fill:url(#linear-gradient-81);}.cls-65{fill:url(#linear-gradient-82);}.cls-66{fill:url(#linear-gradient-83);}.cls-67{fill:url(#linear-gradient-84);}.cls-68{fill:url(#linear-gradient-85);}.cls-69{fill:url(#linear-gradient-86);}.cls-70{fill:url(#linear-gradient-87);}.cls-71{fill:url(#linear-gradient-88);}.cls-72{fill:url(#linear-gradient-89);}.cls-73{fill:url(#linear-gradient-90);}.cls-74{fill:url(#linear-gradient-91);}.cls-75{fill:url(#linear-gradient-120);}.cls-76{fill:url(#linear-gradient-121);}.cls-77{fill:url(#linear-gradient-122);}.cls-78{fill:url(#linear-gradient-123);}.cls-79{fill:url(#linear-gradient-124);}.cls-80{fill:url(#linear-gradient-125);}.cls-81{fill:url(#linear-gradient-126);}.cls-82{fill:url(#linear-gradient-127);}.cls-83{fill:url(#linear-gradient-128);}.cls-84{fill:url(#linear-gradient-129);}.cls-85{fill:url(#linear-gradient-130);}.cls-86{fill:url(#linear-gradient-131);}.cls-87{fill:url(#linear-gradient-132);}.cls-88{fill:url(#linear-gradient-133);}.cls-89{fill:url(#linear-gradient-134);}.cls-90{fill:url(#linear-gradient-135);}.cls-91{fill:url(#linear-gradient-136);}.cls-92{fill:url(#linear-gradient-137);}.cls-93{fill:url(#linear-gradient-138);}.cls-94{fill:url(#linear-gradient-139);}.cls-95{fill:url(#linear-gradient-140);}.cls-96{fill:url(#linear-gradient-141);}.cls-97{fill:url(#linear-gradient-142);}.cls-98{fill:url(#linear-gradient-171);}.cls-99{fill:url(#linear-gradient-172);}.cls-100{fill:url(#linear-gradient-173);}.cls-101{fill:url(#linear-gradient-174);}.cls-102{fill:url(#linear-gradient-175);}.cls-103{fill:url(#linear-gradient-176);}.cls-104{fill:url(#linear-gradient-177);}.cls-105{fill:url(#linear-gradient-178);}.cls-106{fill:url(#linear-gradient-179);}.cls-107{fill:url(#linear-gradient-180);}.cls-108{fill:url(#linear-gradient-181);}.cls-109{fill:url(#linear-gradient-182);}.cls-110{fill:url(#linear-gradient-183);}.cls-111{fill:url(#linear-gradient-184);}.cls-112{fill:url(#linear-gradient-185);}.cls-113{fill:url(#linear-gradient-186);}.cls-114{fill:url(#linear-gradient-187);}.cls-115{fill:url(#linear-gradient-188);}.cls-116{fill:url(#linear-gradient-189);}.cls-117{fill:url(#linear-gradient-190);}.cls-118{fill:url(#linear-gradient-191);}.cls-119{fill:url(#linear-gradient-192);}.cls-120{fill:url(#linear-gradient-193);}.cls-121{fill:url(#linear-gradient-222);}.cls-122{fill:url(#linear-gradient-223);}.cls-123{fill:url(#linear-gradient-224);}.cls-124{fill:url(#linear-gradient-225);}.cls-125{fill:url(#linear-gradient-226);}.cls-126{fill:url(#linear-gradient-227);}.cls-127{fill:url(#linear-gradient-228);}.cls-128{fill:url(#linear-gradient-229);}.cls-129{fill:url(#linear-gradient-230);}.cls-130{fill:url(#linear-gradient-231);}.cls-131{fill:url(#linear-gradient-232);}.cls-132{fill:url(#linear-gradient-233);}.cls-133{fill:url(#linear-gradient-234);}.cls-134{fill:url(#linear-gradient-235);}.cls-135{fill:url(#linear-gradient-236);}.cls-136{fill:url(#linear-gradient-237);}.cls-137{fill:url(#linear-gradient-238);}.cls-138{fill:url(#linear-gradient-239);}.cls-139{fill:url(#linear-gradient-240);}.cls-140{fill:url(#linear-gradient-241);}.cls-141{fill:url(#linear-gradient-242);}.cls-142{fill:url(#linear-gradient-243);}.cls-143{fill:url(#linear-gradient-244);}.cls-144{fill:url(#linear-gradient-273);}.cls-145{fill:url(#linear-gradient-274);}.cls-146{fill:url(#linear-gradient-275);}.cls-147{fill:url(#linear-gradient-276);}.cls-148{fill:url(#linear-gradient-277);}.cls-149{fill:url(#linear-gradient-278);}.cls-150{fill:url(#linear-gradient-279);}.cls-151{fill:url(#linear-gradient-280);}.cls-152{fill:url(#linear-gradient-281);}.cls-153{fill:url(#linear-gradient-282);}.cls-154{fill:url(#linear-gradient-283);}.cls-155{fill:url(#linear-gradient-284);}.cls-156{fill:url(#linear-gradient-285);}.cls-157{fill:url(#linear-gradient-286);}.cls-158{fill:url(#linear-gradient-287);}.cls-159{fill:url(#linear-gradient-288);}.cls-160{fill:url(#linear-gradient-289);}.cls-161{fill:url(#linear-gradient-290);}.cls-162{fill:url(#linear-gradient-291);}.cls-163{fill:url(#linear-gradient-292);}.cls-164{fill:url(#linear-gradient-293);}.cls-165{fill:url(#linear-gradient-294);}.cls-166{fill:url(#linear-gradient-295);}.cls-167{fill:url(#linear-gradient-324);}.cls-168{fill:url(#linear-gradient-325);}.cls-169{fill:url(#linear-gradient-326);}.cls-170{fill:url(#linear-gradient-327);}.cls-171{fill:url(#linear-gradient-328);}.cls-172{fill:url(#linear-gradient-329);}.cls-173{fill:url(#linear-gradient-330);}.cls-174{fill:url(#linear-gradient-331);}.cls-175{fill:url(#linear-gradient-332);}.cls-176{fill:url(#linear-gradient-333);}.cls-177{fill:url(#linear-gradient-334);}.cls-178{fill:url(#linear-gradient-335);}.cls-179{fill:url(#linear-gradient-336);}.cls-180{fill:url(#linear-gradient-337);}.cls-181{fill:url(#linear-gradient-338);}.cls-182{fill:url(#linear-gradient-339);}.cls-183{fill:url(#linear-gradient-340);}.cls-184{fill:url(#linear-gradient-341);}.cls-185{fill:url(#linear-gradient-342);}.cls-186{fill:url(#linear-gradient-343);}.cls-187{fill:url(#linear-gradient-344);}.cls-188{fill:url(#linear-gradient-345);}.cls-189{fill:url(#linear-gradient-346);}.cls-190{fill:url(#linear-gradient-347);}.cls-191{fill:url(#linear-gradient-348);}.cls-192{fill:url(#linear-gradient-349);}.cls-193{fill:url(#linear-gradient-350);}.cls-194{fill:url(#linear-gradient-351);}.cls-195{fill:url(#linear-gradient-352);}.cls-196{fill:url(#linear-gradient-353);}.cls-197{fill:url(#linear-gradient-354);}.cls-198{fill:url(#linear-gradient-355);}.cls-199{fill:url(#linear-gradient-356);}.cls-200{fill:url(#linear-gradient-357);}.cls-201{fill:url(#linear-gradient-358);}.cls-202{fill:url(#linear-gradient-359);}.cls-203{fill:url(#linear-gradient-360);}.cls-204{fill:url(#linear-gradient-361);}.cls-205{fill:url(#linear-gradient-362);}.cls-206{fill:url(#linear-gradient-363);}.cls-207{fill:url(#linear-gradient-364);}.cls-208{fill:url(#linear-gradient-365);}.cls-209{fill:url(#linear-gradient-366);}.cls-210{fill:url(#linear-gradient-367);}.cls-211{fill:#6786a3;}.cls-212{fill:#8695bf;}.cls-213{fill:url(#linear-gradient-368);}.cls-214{fill:url(#linear-gradient-369);}.cls-215{fill:url(#linear-gradient-370);}.cls-216{fill:url(#linear-gradient-371);}.cls-217{fill:url(#linear-gradient-372);}.cls-218{fill:url(#linear-gradient-373);}.cls-219{fill:url(#linear-gradient-374);}.cls-220{fill:url(#linear-gradient-375);}.cls-221{fill:url(#linear-gradient-376);}.cls-222{fill:url(#linear-gradient-377);}.cls-223{fill:url(#linear-gradient-378);}.cls-224{fill:url(#linear-gradient-379);}.cls-225{fill:url(#linear-gradient-380);}.cls-226{fill:url(#linear-gradient-381);}.cls-227{fill:url(#linear-gradient-382);}.cls-228{fill:url(#linear-gradient-383);}.cls-229{fill:url(#linear-gradient-384);}.cls-230{fill:url(#linear-gradient-385);}.cls-231{fill:url(#linear-gradient-386);}.cls-232{fill:url(#linear-gradient-387);}.cls-233{fill:url(#linear-gradient-388);}.cls-234{fill:#c8d4db;}.cls-235{fill:url(#linear-gradient-389);}.cls-236{fill:#2dd6cb;}.cls-237{fill:url(#linear-gradient-390);}.cls-238{fill:url(#linear-gradient-391);}.cls-239{fill:url(#linear-gradient-392);}.cls-240{fill:url(#linear-gradient-393);}.cls-241{fill:url(#linear-gradient-394);}.cls-242{fill:url(#linear-gradient-395);}.cls-243{fill:url(#linear-gradient-396);}.cls-244{fill:url(#linear-gradient-397);}.cls-245{fill:url(#linear-gradient-398);}.cls-246{fill:url(#linear-gradient-399);}</style><linearGradient id="linear-gradient" x1="1.58" y1="26.78" x2="28.42" y2="26.78" gradientUnits="userSpaceOnUse"><stop offset="0" stop-color="#a0b2c2"/><stop offset="1" stop-color="#d0d8e0"/></linearGradient><linearGradient id="linear-gradient-2" x1="7.54" y1="30.17" x2="22.15" y2="22.53" gradientUnits="userSpaceOnUse"><stop offset="0" stop-color="#7739bd"/><stop offset="1" stop-color="#7ac3f3"/></linearGradient><linearGradient id="linear-gradient-3" x1="23.73" y1="35.06" x2="23.73" y2="12.93" gradientUnits="userSpaceOnUse"><stop offset="0" stop-color="#347cbf"/><stop offset="0.22" stop-color="#4f8ec9"/><stop offset="0.67" stop-color="#92bce2"/><stop offset="1" stop-color="#c6e0f5"/></linearGradient><linearGradient id="linear-gradient-4" x1="23.72" y1="33.1" x2="23.72" y2="15.62" gradientUnits="userSpaceOnUse"><stop offset="0" stop-color="#4081b5"/><stop offset="1" stop-color="#c6def2"/></linearGradient><linearGradient id="linear-gradient-5" x1="23.72" y1="32.56" x2="23.72" y2="15.27" gradientUnits="userSpaceOnUse"><stop offset="0" stop-color="#83e4e9"/><stop offset="0.06" stop-color="#89e5ea"/><stop offset="1" stop-color="#e1faf4"/></linearGradient><linearGradient id="linear-gradient-6" x1="37.51" y1="33.09" x2="28.09" y2="12.91" gradientUnits="userSpaceOnUse"><stop offset="0" stop-color="#265491"/><stop offset="1" stop-color="#6a94c1"/></linearGradient><linearGradient id="linear-gradient-7" x1="33.1" y1="32.54" x2="33.1" y2="15.54" gradientUnits="userSpaceOnUse"><stop offset="0" stop-color="#35548f"/><stop offset="1" stop-color="#3b6fae"/></linearGradient><linearGradient id="linear-gradient-8" x1="36.95" y1="12.52" x2="36.95" y2="11.22" gradientUnits="userSpaceOnUse"><stop offset="0" stop-color="#0ed4e3"/><stop offset="1" stop-color="#6cffdd"/></linearGradient><linearGradient id="linear-gradient-9" x1="35.91" y1="12.84" x2="35.91" y2="12.35" gradientUnits="userSpaceOnUse"><stop offset="0" stop-color="#851d23"/><stop offset="1" stop-color="#8f252c"/></linearGradient><linearGradient id="linear-gradient-10" x1="35.65" y1="12.84" x2="35.65" y2="12.35" xlink:href="#linear-gradient-9"/><linearGradient id="linear-gradient-11" x1="35.39" y1="13.05" x2="35.39" y2="12.6" gradientUnits="userSpaceOnUse"><stop offset="0" stop-color="#ebd65e"/><stop offset="1" stop-color="#f2e281"/></linearGradient><linearGradient id="linear-gradient-12" x1="35.12" y1="13.05" x2="35.12" y2="12.6" xlink:href="#linear-gradient-11"/><linearGradient id="linear-gradient-13" x1="34.86" y1="13.25" x2="34.86" y2="12.81" gradientUnits="userSpaceOnUse"><stop offset="0" stop-color="#61ec00"/><stop offset="1" stop-color="#81fa2d"/></linearGradient><linearGradient id="linear-gradient-14" x1="34.59" y1="13.38" x2="34.59" y2="12.94" xlink:href="#linear-gradient-13"/><linearGradient id="linear-gradient-15" x1="32.81" y1="14.86" x2="32.81" y2="12.98" xlink:href="#linear-gradient-8"/><linearGradient id="linear-gradient-16" x1="28.5" y1="15.06" x2="29.74" y2="5.67" gradientUnits="userSpaceOnUse"><stop offset="0" stop-color="#69ace0"/><stop offset="0.36" stop-color="#97c7ec"/><stop offset="0.79" stop-color="#cae4fa"/><stop offset="1" stop-color="#def0ff"/></linearGradient><linearGradient id="linear-gradient-17" x1="29.17" y1="14.62" x2="29.17" y2="5.85" gradientUnits="userSpaceOnUse"><stop offset="0" stop-color="#8fc6f2"/><stop offset="1" stop-color="#acd4f5"/></linearGradient><linearGradient id="linear-gradient-18" x1="28.56" y1="36.55" x2="28.56" y2="35.18" xlink:href="#linear-gradient-8"/><linearGradient id="linear-gradient-19" x1="29.02" y1="36.32" x2="29.02" y2="34.95" xlink:href="#linear-gradient-8"/><linearGradient id="linear-gradient-20" x1="29.48" y1="36.09" x2="29.48" y2="34.72" xlink:href="#linear-gradient-8"/><linearGradient id="linear-gradient-21" x1="29.94" y1="35.87" x2="29.94" y2="34.49" xlink:href="#linear-gradient-8"/><linearGradient id="linear-gradient-22" x1="30.4" y1="35.64" x2="30.4" y2="34.27" xlink:href="#linear-gradient-8"/><linearGradient id="linear-gradient-23" x1="30.86" y1="35.41" x2="30.86" y2="34.04" xlink:href="#linear-gradient-8"/><linearGradient id="linear-gradient-24" x1="31.32" y1="35.18" x2="31.32" y2="33.81" xlink:href="#linear-gradient-8"/><linearGradient id="linear-gradient-25" x1="31.78" y1="34.95" x2="31.78" y2="33.58" xlink:href="#linear-gradient-8"/><linearGradient id="linear-gradient-26" x1="32.24" y1="34.73" x2="32.24" y2="33.36" xlink:href="#linear-gradient-8"/><linearGradient id="linear-gradient-27" x1="32.7" y1="34.5" x2="32.7" y2="33.13" xlink:href="#linear-gradient-8"/><linearGradient id="linear-gradient-28" x1="33.16" y1="34.27" x2="33.16" y2="32.9" xlink:href="#linear-gradient-8"/><linearGradient id="linear-gradient-29" x1="33.62" y1="34.05" x2="33.62" y2="32.68" xlink:href="#linear-gradient-8"/><linearGradient id="linear-gradient-30" x1="34.08" y1="33.82" x2="34.08" y2="32.45" xlink:href="#linear-gradient-8"/><linearGradient id="linear-gradient-31" x1="34.54" y1="33.59" x2="34.54" y2="32.22" xlink:href="#linear-gradient-8"/><linearGradient id="linear-gradient-32" x1="35" y1="33.36" x2="35" y2="31.99" xlink:href="#linear-gradient-8"/><linearGradient id="linear-gradient-33" x1="35.46" y1="33.14" x2="35.46" y2="31.77" xlink:href="#linear-gradient-8"/><linearGradient id="linear-gradient-34" x1="35.92" y1="32.91" x2="35.92" y2="31.54" xlink:href="#linear-gradient-8"/><linearGradient id="linear-gradient-35" x1="36.38" y1="32.68" x2="36.38" y2="31.31" xlink:href="#linear-gradient-8"/><linearGradient id="linear-gradient-36" x1="36.84" y1="32.45" x2="36.84" y2="31.08" xlink:href="#linear-gradient-8"/><linearGradient id="linear-gradient-37" x1="37.3" y1="32.23" x2="37.3" y2="30.86" xlink:href="#linear-gradient-8"/><linearGradient id="linear-gradient-38" x1="37.76" y1="32" x2="37.76" y2="30.63" xlink:href="#linear-gradient-8"/><linearGradient id="linear-gradient-39" x1="33.1" y1="32.54" x2="33.1" y2="15.54" xlink:href="#linear-gradient-7"/><linearGradient id="linear-gradient-40" x1="28.76" y1="19.09" x2="28.76" y2="18.77" xlink:href="#linear-gradient-13"/><linearGradient id="linear-gradient-69" x1="28.93" y1="19.01" x2="28.93" y2="18.68" xlink:href="#linear-gradient-13"/><linearGradient id="linear-gradient-70" x1="29.1" y1="18.92" x2="29.1" y2="18.6" xlink:href="#linear-gradient-13"/><linearGradient id="linear-gradient-71" x1="29.27" y1="18.84" x2="29.27" y2="18.51" xlink:href="#linear-gradient-13"/><linearGradient id="linear-gradient-72" x1="29.44" y1="18.75" x2="29.44" y2="18.43" xlink:href="#linear-gradient-13"/><linearGradient id="linear-gradient-73" x1="29.61" y1="18.66" x2="29.61" y2="18.34" xlink:href="#linear-gradient-13"/><linearGradient id="linear-gradient-74" x1="29.78" y1="18.58" x2="29.78" y2="18.25" xlink:href="#linear-gradient-13"/><linearGradient id="linear-gradient-75" x1="29.95" y1="18.49" x2="29.95" y2="18.17" xlink:href="#linear-gradient-13"/><linearGradient id="linear-gradient-76" x1="31.16" y1="16.69" x2="31.16" y2="16.36" xlink:href="#linear-gradient-8"/><linearGradient id="linear-gradient-77" x1="32.35" y1="16.1" x2="32.35" y2="15.76" xlink:href="#linear-gradient-8"/><linearGradient id="linear-gradient-78" x1="33.55" y1="15.5" x2="33.55" y2="15.17" xlink:href="#linear-gradient-8"/><linearGradient id="linear-gradient-79" x1="34.75" y1="14.91" x2="34.75" y2="14.57" xlink:href="#linear-gradient-8"/><linearGradient id="linear-gradient-80" x1="35.95" y1="14.31" x2="35.95" y2="13.98" xlink:href="#linear-gradient-8"/><linearGradient id="linear-gradient-81" x1="37.15" y1="13.72" x2="37.15" y2="13.38" xlink:href="#linear-gradient-8"/><linearGradient id="linear-gradient-82" x1="31.16" y1="17.92" x2="31.16" y2="17.59" xlink:href="#linear-gradient-8"/><linearGradient id="linear-gradient-83" x1="32.35" y1="17.33" x2="32.35" y2="16.99" xlink:href="#linear-gradient-8"/><linearGradient id="linear-gradient-84" x1="33.55" y1="16.73" x2="33.55" y2="16.4" xlink:href="#linear-gradient-8"/><linearGradient id="linear-gradient-85" x1="34.75" y1="16.14" x2="34.75" y2="15.8" xlink:href="#linear-gradient-8"/><linearGradient id="linear-gradient-86" x1="35.95" y1="15.54" x2="35.95" y2="15.2" xlink:href="#linear-gradient-8"/><linearGradient id="linear-gradient-87" x1="37.15" y1="14.94" x2="37.15" y2="14.61" xlink:href="#linear-gradient-8"/><linearGradient id="linear-gradient-88" x1="29.36" y1="18.56" x2="29.36" y2="17.04" xlink:href="#linear-gradient-8"/><linearGradient id="linear-gradient-89" x1="34" y1="32.54" x2="34" y2="15.54" xlink:href="#linear-gradient-7"/><linearGradient id="linear-gradient-90" x1="33.09" y1="32.54" x2="33.09" y2="15.54" xlink:href="#linear-gradient-7"/><linearGradient id="linear-gradient-91" x1="28.75" y1="21.91" x2="28.75" y2="21.58" xlink:href="#linear-gradient-13"/><linearGradient id="linear-gradient-120" x1="28.92" y1="21.82" x2="28.92" y2="21.49" xlink:href="#linear-gradient-13"/><linearGradient id="linear-gradient-121" x1="29.09" y1="21.73" x2="29.09" y2="21.41" xlink:href="#linear-gradient-13"/><linearGradient id="linear-gradient-122" x1="29.26" y1="21.65" x2="29.26" y2="21.32" xlink:href="#linear-gradient-13"/><linearGradient id="linear-gradient-123" x1="29.43" y1="21.56" x2="29.43" y2="21.24" xlink:href="#linear-gradient-13"/><linearGradient id="linear-gradient-124" x1="29.6" y1="21.48" x2="29.6" y2="21.15" xlink:href="#linear-gradient-13"/><linearGradient id="linear-gradient-125" x1="29.77" y1="21.39" x2="29.77" y2="21.07" xlink:href="#linear-gradient-13"/><linearGradient id="linear-gradient-126" x1="29.94" y1="21.31" x2="29.94" y2="20.98" xlink:href="#linear-gradient-13"/><linearGradient id="linear-gradient-127" x1="31.15" y1="19.51" x2="31.15" y2="19.17" xlink:href="#linear-gradient-8"/><linearGradient id="linear-gradient-128" x1="32.34" y1="18.91" x2="32.34" y2="18.57" xlink:href="#linear-gradient-8"/><linearGradient id="linear-gradient-129" x1="33.54" y1="18.31" x2="33.54" y2="17.98" xlink:href="#linear-gradient-8"/><linearGradient id="linear-gradient-130" x1="34.74" y1="17.72" x2="34.74" y2="17.38" xlink:href="#linear-gradient-8"/><linearGradient id="linear-gradient-131" x1="35.94" y1="17.12" x2="35.94" y2="16.79" xlink:href="#linear-gradient-8"/><linearGradient id="linear-gradient-132" x1="37.14" y1="16.53" x2="37.14" y2="16.19" xlink:href="#linear-gradient-8"/><linearGradient id="linear-gradient-133" x1="31.15" y1="20.73" x2="31.15" y2="20.4" xlink:href="#linear-gradient-8"/><linearGradient id="linear-gradient-134" x1="32.34" y1="20.14" x2="32.34" y2="19.8" xlink:href="#linear-gradient-8"/><linearGradient id="linear-gradient-135" x1="33.54" y1="19.54" x2="33.54" y2="19.21" xlink:href="#linear-gradient-8"/><linearGradient id="linear-gradient-136" x1="34.74" y1="18.95" x2="34.74" y2="18.61" xlink:href="#linear-gradient-8"/><linearGradient id="linear-gradient-137" x1="35.94" y1="18.35" x2="35.94" y2="18.02" xlink:href="#linear-gradient-8"/><linearGradient id="linear-gradient-138" x1="37.14" y1="17.76" x2="37.14" y2="17.42" xlink:href="#linear-gradient-8"/><linearGradient id="linear-gradient-139" x1="29.35" y1="21.37" x2="29.35" y2="19.85" xlink:href="#linear-gradient-8"/><linearGradient id="linear-gradient-140" x1="33.99" y1="32.54" x2="33.99" y2="15.54" xlink:href="#linear-gradient-7"/><linearGradient id="linear-gradient-141" x1="33.1" y1="32.54" x2="33.1" y2="15.54" xlink:href="#linear-gradient-7"/><linearGradient id="linear-gradient-142" x1="28.76" y1="24.72" x2="28.76" y2="24.39" xlink:href="#linear-gradient-13"/><linearGradient id="linear-gradient-171" x1="28.93" y1="24.63" x2="28.93" y2="24.31" xlink:href="#linear-gradient-13"/><linearGradient id="linear-gradient-172" x1="29.1" y1="24.55" x2="29.1" y2="24.22" xlink:href="#linear-gradient-13"/><linearGradient id="linear-gradient-173" x1="29.27" y1="24.46" x2="29.27" y2="24.13" xlink:href="#linear-gradient-13"/><linearGradient id="linear-gradient-174" x1="29.44" y1="24.37" x2="29.44" y2="24.05" xlink:href="#linear-gradient-13"/><linearGradient id="linear-gradient-175" x1="29.61" y1="24.29" x2="29.61" y2="23.96" xlink:href="#linear-gradient-13"/><linearGradient id="linear-gradient-176" x1="29.78" y1="24.2" x2="29.78" y2="23.88" xlink:href="#linear-gradient-13"/><linearGradient id="linear-gradient-177" x1="29.95" y1="24.12" x2="29.95" y2="23.79" xlink:href="#linear-gradient-13"/><linearGradient id="linear-gradient-178" x1="31.16" y1="22.32" x2="31.16" y2="21.98" xlink:href="#linear-gradient-8"/><linearGradient id="linear-gradient-179" x1="32.35" y1="21.72" x2="32.35" y2="21.39" xlink:href="#linear-gradient-8"/><linearGradient id="linear-gradient-180" x1="33.55" y1="21.13" x2="33.55" y2="20.79" xlink:href="#linear-gradient-8"/><linearGradient id="linear-gradient-181" x1="34.75" y1="20.53" x2="34.75" y2="20.19" xlink:href="#linear-gradient-8"/><linearGradient id="linear-gradient-182" x1="35.95" y1="19.93" x2="35.95" y2="19.6" xlink:href="#linear-gradient-8"/><linearGradient id="linear-gradient-183" x1="37.15" y1="19.34" x2="37.15" y2="19" xlink:href="#linear-gradient-8"/><linearGradient id="linear-gradient-184" x1="31.16" y1="23.55" x2="31.16" y2="23.21" xlink:href="#linear-gradient-8"/><linearGradient id="linear-gradient-185" x1="32.35" y1="22.95" x2="32.35" y2="22.62" xlink:href="#linear-gradient-8"/><linearGradient id="linear-gradient-186" x1="33.55" y1="22.36" x2="33.55" y2="22.02" xlink:href="#linear-gradient-8"/><linearGradient id="linear-gradient-187" x1="34.75" y1="21.76" x2="34.75" y2="21.42" xlink:href="#linear-gradient-8"/><linearGradient id="linear-gradient-188" x1="35.95" y1="21.16" x2="35.95" y2="20.83" xlink:href="#linear-gradient-8"/><linearGradient id="linear-gradient-189" x1="37.15" y1="20.57" x2="37.15" y2="20.23" xlink:href="#linear-gradient-8"/><linearGradient id="linear-gradient-190" x1="29.36" y1="24.18" x2="29.36" y2="22.66" xlink:href="#linear-gradient-8"/><linearGradient id="linear-gradient-191" x1="34" y1="32.54" x2="34" y2="15.54" xlink:href="#linear-gradient-7"/><linearGradient id="linear-gradient-192" x1="33.1" y1="32.54" x2="33.1" y2="15.54" xlink:href="#linear-gradient-7"/><linearGradient id="linear-gradient-193" x1="28.76" y1="27.53" x2="28.76" y2="27.2" xlink:href="#linear-gradient-13"/><linearGradient id="linear-gradient-222" x1="28.93" y1="27.44" x2="28.93" y2="27.12" xlink:href="#linear-gradient-13"/><linearGradient id="linear-gradient-223" x1="29.1" y1="27.36" x2="29.1" y2="27.03" xlink:href="#linear-gradient-13"/><linearGradient id="linear-gradient-224" x1="29.27" y1="27.27" x2="29.27" y2="26.95" xlink:href="#linear-gradient-13"/><linearGradient id="linear-gradient-225" x1="29.44" y1="27.19" x2="29.44" y2="26.86" xlink:href="#linear-gradient-13"/><linearGradient id="linear-gradient-226" x1="29.61" y1="27.1" x2="29.61" y2="26.78" xlink:href="#linear-gradient-13"/><linearGradient id="linear-gradient-227" x1="29.78" y1="27.01" x2="29.78" y2="26.69" xlink:href="#linear-gradient-13"/><linearGradient id="linear-gradient-228" x1="29.95" y1="26.93" x2="29.95" y2="26.6" xlink:href="#linear-gradient-13"/><linearGradient id="linear-gradient-229" x1="31.16" y1="25.13" x2="31.16" y2="24.79" xlink:href="#linear-gradient-8"/><linearGradient id="linear-gradient-230" x1="32.35" y1="24.53" x2="32.35" y2="24.2" xlink:href="#linear-gradient-8"/><linearGradient id="linear-gradient-231" x1="33.55" y1="23.94" x2="33.55" y2="23.6" xlink:href="#linear-gradient-8"/><linearGradient id="linear-gradient-232" x1="34.75" y1="23.34" x2="34.75" y2="23.01" xlink:href="#linear-gradient-8"/><linearGradient id="linear-gradient-233" x1="35.95" y1="22.75" x2="35.95" y2="22.41" xlink:href="#linear-gradient-8"/><linearGradient id="linear-gradient-234" x1="37.15" y1="22.15" x2="37.15" y2="21.81" xlink:href="#linear-gradient-8"/><linearGradient id="linear-gradient-235" x1="31.16" y1="26.36" x2="31.16" y2="26.02" xlink:href="#linear-gradient-8"/><linearGradient id="linear-gradient-236" x1="32.35" y1="25.76" x2="32.35" y2="25.43" xlink:href="#linear-gradient-8"/><linearGradient id="linear-gradient-237" x1="33.55" y1="25.17" x2="33.55" y2="24.83" xlink:href="#linear-gradient-8"/><linearGradient id="linear-gradient-238" x1="34.75" y1="24.57" x2="34.75" y2="24.24" xlink:href="#linear-gradient-8"/><linearGradient id="linear-gradient-239" x1="35.95" y1="23.97" x2="35.95" y2="23.64" xlink:href="#linear-gradient-8"/><linearGradient id="linear-gradient-240" x1="37.15" y1="23.38" x2="37.15" y2="23.04" xlink:href="#linear-gradient-8"/><linearGradient id="linear-gradient-241" x1="29.36" y1="26.99" x2="29.36" y2="25.47" xlink:href="#linear-gradient-8"/><linearGradient id="linear-gradient-242" x1="34" y1="32.54" x2="34" y2="15.54" xlink:href="#linear-gradient-7"/><linearGradient id="linear-gradient-243" x1="33.1" y1="32.54" x2="33.1" y2="15.54" xlink:href="#linear-gradient-7"/><linearGradient id="linear-gradient-244" x1="28.76" y1="30.34" x2="28.76" y2="30.01" xlink:href="#linear-gradient-13"/><linearGradient id="linear-gradient-273" x1="28.93" y1="30.25" x2="28.93" y2="29.93" xlink:href="#linear-gradient-13"/><linearGradient id="linear-gradient-274" x1="29.1" y1="30.17" x2="29.1" y2="29.84" xlink:href="#linear-gradient-13"/><linearGradient id="linear-gradient-275" x1="29.27" y1="30.08" x2="29.27" y2="29.76" xlink:href="#linear-gradient-13"/><linearGradient id="linear-gradient-276" x1="29.44" y1="30" x2="29.44" y2="29.67" xlink:href="#linear-gradient-13"/><linearGradient id="linear-gradient-277" x1="29.61" y1="29.91" x2="29.61" y2="29.59" xlink:href="#linear-gradient-13"/><linearGradient id="linear-gradient-278" x1="29.78" y1="29.83" x2="29.78" y2="29.5" xlink:href="#linear-gradient-13"/><linearGradient id="linear-gradient-279" x1="29.95" y1="29.74" x2="29.95" y2="29.41" xlink:href="#linear-gradient-13"/><linearGradient id="linear-gradient-280" x1="31.16" y1="27.94" x2="31.16" y2="27.61" xlink:href="#linear-gradient-8"/><linearGradient id="linear-gradient-281" x1="32.35" y1="27.35" x2="32.35" y2="27.01" xlink:href="#linear-gradient-8"/><linearGradient id="linear-gradient-282" x1="33.55" y1="26.75" x2="33.55" y2="26.41" xlink:href="#linear-gradient-8"/><linearGradient id="linear-gradient-283" x1="34.75" y1="26.15" x2="34.75" y2="25.82" xlink:href="#linear-gradient-8"/><linearGradient id="linear-gradient-284" x1="35.95" y1="25.56" x2="35.95" y2="25.22" xlink:href="#linear-gradient-8"/><linearGradient id="linear-gradient-285" x1="37.15" y1="24.96" x2="37.15" y2="24.63" xlink:href="#linear-gradient-8"/><linearGradient id="linear-gradient-286" x1="31.16" y1="29.17" x2="31.16" y2="28.83" xlink:href="#linear-gradient-8"/><linearGradient id="linear-gradient-287" x1="32.35" y1="28.57" x2="32.35" y2="28.24" xlink:href="#linear-gradient-8"/><linearGradient id="linear-gradient-288" x1="33.55" y1="27.98" x2="33.55" y2="27.64" xlink:href="#linear-gradient-8"/><linearGradient id="linear-gradient-289" x1="34.75" y1="27.38" x2="34.75" y2="27.05" xlink:href="#linear-gradient-8"/><linearGradient id="linear-gradient-290" x1="35.95" y1="26.79" x2="35.95" y2="26.45" xlink:href="#linear-gradient-8"/><linearGradient id="linear-gradient-291" x1="37.15" y1="26.19" x2="37.15" y2="25.85" xlink:href="#linear-gradient-8"/><linearGradient id="linear-gradient-292" x1="29.36" y1="29.81" x2="29.36" y2="28.28" xlink:href="#linear-gradient-8"/><linearGradient id="linear-gradient-293" x1="34" y1="32.54" x2="34" y2="15.54" xlink:href="#linear-gradient-7"/><linearGradient id="linear-gradient-294" x1="33.1" y1="32.54" x2="33.1" y2="15.54" xlink:href="#linear-gradient-7"/><linearGradient id="linear-gradient-295" x1="28.76" y1="33.15" x2="28.76" y2="32.83" xlink:href="#linear-gradient-13"/><linearGradient id="linear-gradient-324" x1="28.93" y1="33.07" x2="28.93" y2="32.74" xlink:href="#linear-gradient-13"/><linearGradient id="linear-gradient-325" x1="29.1" y1="32.98" x2="29.1" y2="32.66" xlink:href="#linear-gradient-13"/><linearGradient id="linear-gradient-326" x1="29.27" y1="32.89" x2="29.27" y2="32.57" xlink:href="#linear-gradient-13"/><linearGradient id="linear-gradient-327" x1="29.44" y1="32.81" x2="29.44" y2="32.48" xlink:href="#linear-gradient-13"/><linearGradient id="linear-gradient-328" x1="29.61" y1="32.72" x2="29.61" y2="32.4" xlink:href="#linear-gradient-13"/><linearGradient id="linear-gradient-329" x1="29.78" y1="32.64" x2="29.78" y2="32.31" xlink:href="#linear-gradient-13"/><linearGradient id="linear-gradient-330" x1="29.95" y1="32.55" x2="29.95" y2="32.23" xlink:href="#linear-gradient-13"/><linearGradient id="linear-gradient-331" x1="31.16" y1="30.75" x2="31.16" y2="30.42" xlink:href="#linear-gradient-8"/><linearGradient id="linear-gradient-332" x1="32.35" y1="30.16" x2="32.35" y2="29.82" xlink:href="#linear-gradient-8"/><linearGradient id="linear-gradient-333" x1="33.55" y1="29.56" x2="33.55" y2="29.23" xlink:href="#linear-gradient-8"/><linearGradient id="linear-gradient-334" x1="34.75" y1="28.97" x2="34.75" y2="28.63" xlink:href="#linear-gradient-8"/><linearGradient id="linear-gradient-335" x1="35.95" y1="28.37" x2="35.95" y2="28.03" xlink:href="#linear-gradient-8"/><linearGradient id="linear-gradient-336" x1="37.15" y1="27.77" x2="37.15" y2="27.44" xlink:href="#linear-gradient-8"/><linearGradient id="linear-gradient-337" x1="31.16" y1="31.98" x2="31.16" y2="31.65" xlink:href="#linear-gradient-8"/><linearGradient id="linear-gradient-338" x1="32.35" y1="31.39" x2="32.35" y2="31.05" xlink:href="#linear-gradient-8"/><linearGradient id="linear-gradient-339" x1="33.55" y1="30.79" x2="33.55" y2="30.45" xlink:href="#linear-gradient-8"/><linearGradient id="linear-gradient-340" x1="34.75" y1="30.19" x2="34.75" y2="29.86" xlink:href="#linear-gradient-8"/><linearGradient id="linear-gradient-341" x1="35.95" y1="29.6" x2="35.95" y2="29.26" xlink:href="#linear-gradient-8"/><linearGradient id="linear-gradient-342" x1="37.15" y1="29" x2="37.15" y2="28.67" xlink:href="#linear-gradient-8"/><linearGradient id="linear-gradient-343" x1="29.36" y1="32.62" x2="29.36" y2="31.1" xlink:href="#linear-gradient-8"/><linearGradient id="linear-gradient-344" x1="34" y1="32.54" x2="34" y2="15.54" xlink:href="#linear-gradient-7"/><linearGradient id="linear-gradient-345" x1="26.92" y1="35.8" x2="26.92" y2="33.38" xlink:href="#linear-gradient-8"/><linearGradient id="linear-gradient-346" x1="26.59" y1="35.8" x2="26.59" y2="33.38" xlink:href="#linear-gradient-8"/><linearGradient id="linear-gradient-347" x1="26.27" y1="35.8" x2="26.27" y2="33.38" xlink:href="#linear-gradient-8"/><linearGradient id="linear-gradient-348" x1="25.95" y1="35.8" x2="25.95" y2="33.38" xlink:href="#linear-gradient-8"/><linearGradient id="linear-gradient-349" x1="25.62" y1="35.8" x2="25.62" y2="33.38" xlink:href="#linear-gradient-8"/><linearGradient id="linear-gradient-350" x1="25.3" y1="35.8" x2="25.3" y2="33.38" gradientUnits="userSpaceOnUse"><stop offset="0" stop-color="#63eae2"/><stop offset="1" stop-color="#50c7c1"/></linearGradient><linearGradient id="linear-gradient-351" x1="24.98" y1="35.8" x2="24.98" y2="33.38" gradientUnits="userSpaceOnUse"><stop offset="0" stop-color="#63eae2"/><stop offset="1" stop-color="#52cac4"/></linearGradient><linearGradient id="linear-gradient-352" x1="24.65" y1="35.8" x2="24.65" y2="33.38" xlink:href="#linear-gradient-8"/><linearGradient id="linear-gradient-353" x1="24.33" y1="35.8" x2="24.33" y2="33.38" xlink:href="#linear-gradient-8"/><linearGradient id="linear-gradient-354" x1="24.01" y1="35.8" x2="24.01" y2="33.38" xlink:href="#linear-gradient-8"/><linearGradient id="linear-gradient-355" x1="23.68" y1="35.8" x2="23.68" y2="33.38" xlink:href="#linear-gradient-8"/><linearGradient id="linear-gradient-356" x1="23.36" y1="35.8" x2="23.36" y2="33.38" xlink:href="#linear-gradient-8"/><linearGradient id="linear-gradient-357" x1="23.04" y1="35.8" x2="23.04" y2="33.38" xlink:href="#linear-gradient-8"/><linearGradient id="linear-gradient-358" x1="22.71" y1="35.8" x2="22.71" y2="33.38" xlink:href="#linear-gradient-8"/><linearGradient id="linear-gradient-359" x1="22.39" y1="35.8" x2="22.39" y2="33.38" gradientUnits="userSpaceOnUse"><stop offset="0" stop-color="#63eae2"/><stop offset="1" stop-color="#60e6de"/></linearGradient><linearGradient id="linear-gradient-360" x1="22.07" y1="35.8" x2="22.07" y2="33.38" gradientUnits="userSpaceOnUse"><stop offset="0" stop-color="#63eae2"/><stop offset="1" stop-color="#62eae2"/></linearGradient><linearGradient id="linear-gradient-361" x1="21.74" y1="35.8" x2="21.74" y2="33.38" xlink:href="#linear-gradient-8"/><linearGradient id="linear-gradient-362" x1="21.42" y1="35.8" x2="21.42" y2="33.38" xlink:href="#linear-gradient-8"/><linearGradient id="linear-gradient-363" x1="21.1" y1="35.8" x2="21.1" y2="33.38" xlink:href="#linear-gradient-8"/><linearGradient id="linear-gradient-364" x1="20.77" y1="35.8" x2="20.77" y2="33.38" xlink:href="#linear-gradient-8"/><linearGradient id="linear-gradient-365" x1="20.45" y1="35.8" x2="20.45" y2="33.38" xlink:href="#linear-gradient-8"/><linearGradient id="linear-gradient-366" x1="23.12" y1="38.04" x2="18.08" y2="11.33" gradientUnits="userSpaceOnUse"><stop offset="0" stop-color="#4488bf"/><stop offset="1" stop-color="#509bd9"/></linearGradient><linearGradient id="linear-gradient-367" x1="25.63" y1="37.57" x2="20.59" y2="10.85" xlink:href="#linear-gradient-366"/><linearGradient id="linear-gradient-368" x1="23.31" y1="10.31" x2="35.02" y2="10.31" gradientUnits="userSpaceOnUse"><stop offset="0" stop-color="#e6efff"/><stop offset="1" stop-color="#c8dbfa"/></linearGradient><linearGradient id="linear-gradient-369" x1="36.66" y1="14.63" x2="36.66" y2="5.85" xlink:href="#linear-gradient-17"/><linearGradient id="linear-gradient-370" x1="36.37" y1="14.62" x2="36.37" y2="5.85" gradientTransform="translate(28.1 -26.96) rotate(62.27)" xlink:href="#linear-gradient-17"/><linearGradient id="linear-gradient-371" x1="36.08" y1="14.62" x2="36.08" y2="5.85" gradientTransform="translate(28.06 -26.63) rotate(62.25)" xlink:href="#linear-gradient-17"/><linearGradient id="linear-gradient-372" x1="35.79" y1="14.62" x2="35.79" y2="5.85" xlink:href="#linear-gradient-17"/><linearGradient id="linear-gradient-373" x1="30.75" y1="14.62" x2="30.75" y2="5.85" gradientTransform="translate(22.33 -23.67) rotate(62.29)" xlink:href="#linear-gradient-17"/><linearGradient id="linear-gradient-374" x1="30.48" y1="14.62" x2="30.48" y2="5.85" gradientTransform="translate(22.31 -23.36) rotate(62.29)" xlink:href="#linear-gradient-17"/><linearGradient id="linear-gradient-375" x1="30.19" y1="14.63" x2="30.19" y2="5.85" gradientTransform="translate(22.26 -23.02) rotate(62.27)" xlink:href="#linear-gradient-17"/><linearGradient id="linear-gradient-376" x1="29.89" y1="14.63" x2="29.89" y2="5.85" xlink:href="#linear-gradient-17"/><linearGradient id="linear-gradient-377" x1="28.41" y1="14.62" x2="28.41" y2="5.85" xlink:href="#linear-gradient-17"/><linearGradient id="linear-gradient-378" x1="28.12" y1="14.62" x2="28.12" y2="5.85" xlink:href="#linear-gradient-17"/><linearGradient id="linear-gradient-379" x1="27.83" y1="14.62" x2="27.83" y2="5.85" xlink:href="#linear-gradient-17"/><linearGradient id="linear-gradient-380" x1="27.54" y1="14.62" x2="27.54" y2="5.85" xlink:href="#linear-gradient-17"/><linearGradient id="linear-gradient-381" x1="22.44" y1="14.62" x2="22.44" y2="5.85" xlink:href="#linear-gradient-17"/><linearGradient id="linear-gradient-382" x1="22.17" y1="14.62" x2="22.17" y2="5.85" gradientTransform="translate(21.5 -13.8) rotate(62.29)" xlink:href="#linear-gradient-17"/><linearGradient id="linear-gradient-383" x1="21.87" y1="14.62" x2="21.87" y2="5.85" gradientTransform="translate(21.45 -13.46) rotate(62.27)" xlink:href="#linear-gradient-17"/><linearGradient id="linear-gradient-384" x1="21.57" y1="14.63" x2="21.57" y2="5.85" gradientTransform="translate(21.41 -13.13) rotate(62.27)" xlink:href="#linear-gradient-17"/><linearGradient id="linear-gradient-385" x1="28.77" y1="39.87" x2="58.42" y2="39.87" gradientUnits="userSpaceOnUse"><stop offset="0" stop-color="#a0aec2"/><stop offset="1" stop-color="#d0d6e0"/></linearGradient><linearGradient id="linear-gradient-386" x1="37.26" y1="43.14" x2="50.94" y2="35.09" xlink:href="#linear-gradient-2"/><linearGradient id="linear-gradient-387" x1="-748.31" y1="-377.18" x2="-748.31" y2="-353.79" gradientTransform="translate(-725.04 -351.82) rotate(180)" xlink:href="#linear-gradient-8"/><linearGradient id="linear-gradient-388" x1="11.07" y1="42.99" x2="20.28" y2="37.15" gradientUnits="userSpaceOnUse"><stop offset="0" stop-color="#a0abc2"/><stop offset="1" stop-color="#d0d5e0"/></linearGradient><linearGradient id="linear-gradient-389" x1="17.93" y1="37.4" x2="21.6" y2="27.83" xlink:href="#linear-gradient-2"/><linearGradient id="linear-gradient-390" x1="33.93" y1="12.68" x2="31.64" y2="8.72" gradientUnits="userSpaceOnUse"><stop offset="0" stop-color="#2c5aa3"/><stop offset="0.17" stop-color="#3065ab"/><stop offset="0.46" stop-color="#3c81bf"/><stop offset="0.83" stop-color="#4fafe0"/><stop offset="1" stop-color="#58c5f0"/></linearGradient><linearGradient id="linear-gradient-391" x1="26.05" y1="6.21" x2="25.37" y2="5.52" xlink:href="#linear-gradient-390"/><linearGradient id="linear-gradient-392" x1="32.41" y1="8.49" x2="28.3" y2="4.39" xlink:href="#linear-gradient-390"/><linearGradient id="linear-gradient-393" x1="27.64" y1="11.2" x2="28.67" y2="4.77" gradientUnits="userSpaceOnUse"><stop offset="0" stop-color="#4cdbe8"/><stop offset="0.23" stop-color="#61e4ec"/><stop offset="0.74" stop-color="#8df8f5"/><stop offset="1" stop-color="#9efff8"/></linearGradient><linearGradient id="linear-gradient-394" x1="28.4" y1="11.33" x2="29.43" y2="4.89" xlink:href="#linear-gradient-393"/><linearGradient id="linear-gradient-395" x1="23.7" y1="10.57" x2="24.73" y2="4.14" xlink:href="#linear-gradient-393"/><linearGradient id="linear-gradient-396" x1="31.58" y1="11.83" x2="32.61" y2="5.4" xlink:href="#linear-gradient-393"/><linearGradient id="linear-gradient-397" x1="25.45" y1="10.85" x2="26.48" y2="4.42" xlink:href="#linear-gradient-393"/><linearGradient id="linear-gradient-398" x1="38.84" y1="39.37" x2="38.84" y2="11.09" xlink:href="#linear-gradient-8"/><linearGradient id="linear-gradient-399" x1="-745.74" y1="40.48" x2="-745.74" y2="10.03" gradientTransform="matrix(-1, 0, 0, 1, -725.04, 0)" xlink:href="#linear-gradient-8"/></defs><title>server-edited</title><g class="cls-1"><path class="cls-2" d="M1.92,32.53c-.39.2-.39.52,0,.71l8.55,4.11a1.8,1.8,0,0,0,1.42,0l16.91-8.5c.39-.2.39-.52,0-.71L20.41,24A1.82,1.82,0,0,0,19,24Z"/></g><g class="cls-1"><path class="cls-2" d="M1.92,30.48c-.39.19-.39.51,0,.7l8.55,4.12a1.8,1.8,0,0,0,1.42,0L28.8,26.79c.39-.2.39-.52,0-.72l-8.38-4.15a1.82,1.82,0,0,0-1.43,0Z"/></g><g class="cls-1"><path class="cls-2" d="M1.92,29.09c-.39.19-.39.51,0,.7l8.55,4.11a1.8,1.8,0,0,0,1.42,0l16.91-8.5c.39-.19.39-.51,0-.71l-8.38-4.15a1.78,1.78,0,0,0-1.43,0Z"/></g><g class="cls-1"><path class="cls-2" d="M29.1,45c-.39.2-.39.51,0,.7l11.36,5.48a1.82,1.82,0,0,0,1.43,0l16.6-8.29c.39-.2.39-.52,0-.71l-11.25-5.6a1.8,1.8,0,0,0-1.42,0Z"/></g><g class="cls-1"><path class="cls-2" d="M29.1,42.92c-.39.19-.39.51,0,.7l11.36,5.47a1.82,1.82,0,0,0,1.43,0l16.6-8.3c.39-.19.39-.51,0-.71L47.23,34.48a1.76,1.76,0,0,0-1.42,0Z"/></g><g class="cls-1"><path class="cls-2" d="M29.1,41.52c-.39.19-.39.51,0,.7l11.36,5.47a1.82,1.82,0,0,0,1.43,0l16.6-8.3c.39-.19.39-.51,0-.71L47.23,33.08a1.76,1.76,0,0,0-1.42,0Z"/></g><polygon class="cls-3" points="12.72 36.52 26.75 29.53 38.52 35.39 24.45 42.47 12.72 36.52"/><polygon class="cls-3" points="12.72 35.13 26.75 28.14 38.52 33.99 24.45 41.08 12.72 35.13"/><polygon class="cls-3" points="12.72 33.94 26.75 26.94 38.52 32.8 24.45 39.89 12.72 33.94"/><g class="cls-1"><path class="cls-2" d="M1.28,43.58c-.39.19-.39.51,0,.71L15.8,51.62a1.76,1.76,0,0,0,1.42,0l10.36-5.14c.39-.19.39-.52,0-.72L13.06,38.35a1.76,1.76,0,0,0-1.42,0Z"/></g><g class="cls-1"><path class="cls-2" d="M1.28,41.52c-.39.2-.39.52,0,.72L15.8,49.56a1.8,1.8,0,0,0,1.42,0l10.36-5.15c.39-.19.39-.51,0-.71L13.06,36.29a1.76,1.76,0,0,0-1.42,0Z"/></g><g class="cls-1"><path class="cls-2" d="M1.28,40.13c-.39.2-.39.52,0,.71L15.8,48.17a1.8,1.8,0,0,0,1.42,0L27.58,43c.39-.19.39-.51,0-.71L13.06,34.9a1.76,1.76,0,0,0-1.42,0Z"/></g><path class="cls-4" d="M18.87,20.23a1.35,1.35,0,0,1,1.06,0l8.4,3.64c.15.08.08.61.08.71s-.07.19-.22.26l-17,8.5a1.39,1.39,0,0,1-1.06,0l-8.37-4c-.15-.07-.22-.16-.22-.26v-.59Z"/><path class="cls-5" d="M18.87,19.68a1.35,1.35,0,0,1,1.06,0l8.26,4.08c.29.15.29.39,0,.53l-17,8.5a1.39,1.39,0,0,1-1.06,0l-8.37-4c-.29-.14-.3-.38,0-.52Z"/><polygon class="cls-6" points="4.48 27.62 19.16 20.28 26.95 24.17 12.47 31.41 4.48 27.62"/><path class="cls-7" d="M7.79,30.11c0,.2-.26.36-.59.36s-.6-.16-.6-.36.27-.37.6-.37S7.79,29.91,7.79,30.11Z"/><path class="cls-8" d="M18.72,25.28c0,.43-.76.78-1.68.78s-1.68-.35-1.68-.78.75-.78,1.68-.78S18.72,24.85,18.72,25.28Z"/><path class="cls-9" d="M17.74,25.28c0,.18-.31.33-.7.33s-.71-.15-.71-.33S16.65,25,17,25,17.74,25.1,17.74,25.28Z"/><path class="cls-7" d="M23.84,22.14a.13.13,0,0,1-.12,0l-1.23-.62s0,0,0-.06l0,0a.24.24,0,0,1,.12,0l1.24.62s0,0,0,.06Z"/><polygon class="cls-10" points="21.14 33.18 19.76 33.87 19.76 32.48 21.14 33.18"/><polygon class="cls-11" points="27.7 36.51 27.7 37.9 19.76 33.87 19.76 32.48 21.14 33.18 27.7 36.51"/><polygon class="cls-10" points="38.45 31.14 38.45 32.52 37.08 31.82 38.45 31.14"/><polygon class="cls-12" points="38.45 31.14 38.45 32.53 27.7 37.9 27.7 36.51 37.08 31.82 38.45 31.14"/><polygon class="cls-10" points="30.52 27.97 19.76 33.34 19.76 11.14 33.17 7.52 30.52 27.97"/><polygon class="cls-13" points="19.76 33.34 27.7 37.37 27.7 15.17 19.76 11.14 19.76 33.34"/><polygon class="cls-14" points="20.45 30.89 20.45 14.03 27 17.4 27 34.13 20.45 30.89"/><path class="cls-15" d="M27,34.19h0L20.42,31a.07.07,0,0,1,0-.06V14a.07.07,0,0,1,0-.06h.06L27,17.34a.07.07,0,0,1,0,.06V34.13a.05.05,0,0,1,0,0Zm-6.48-3.28L26.93,34V17.44l-6.41-3.31Z"/><polygon class="cls-10" points="33.17 29.28 38.45 32 38.45 9.8 33.17 7.29 33.17 29.28"/><polygon class="cls-16" points="38.45 32 27.7 37.37 27.7 15.17 38.45 9.8 38.45 32"/><polygon class="cls-17" points="37.97 10.72 28.23 15.58 28.23 16.81 37.97 11.95 37.97 10.72"/><polygon class="cls-18" points="36.26 11.91 36.26 12.52 37.65 11.83 37.65 11.22 36.26 11.91"/><polygon class="cls-19" points="35.85 12.35 35.85 12.73 35.98 12.66 35.98 12.29 35.85 12.35"/><polygon class="cls-20" points="35.58 12.48 35.58 12.86 35.72 12.79 35.72 12.42 35.58 12.48"/><polygon class="cls-21" points="35.32 12.62 35.32 12.99 35.45 12.92 35.45 12.55 35.32 12.62"/><polygon class="cls-22" points="35.05 12.75 35.05 13.12 35.19 13.05 35.19 12.68 35.05 12.75"/><polygon class="cls-23" points="34.79 12.88 34.79 13.25 34.92 13.19 34.92 12.81 34.79 12.88"/><polygon class="cls-24" points="34.52 13.01 34.52 13.38 34.66 13.32 34.66 12.94 34.52 13.01"/><polygon class="cls-25" points="31.53 14.26 31.53 14.86 34.09 13.58 34.09 12.98 31.53 14.26"/><polygon class="cls-26" points="31.04 14.51 28.61 15.69 28.61 16.31 31.04 15.11 31.04 14.51"/><polygon class="cls-27" points="30.52 5.77 38.45 9.8 27.7 15.17 19.76 11.14 30.52 5.77"/><polygon class="cls-28" points="20.62 11.12 30.59 6.14 37.72 9.76 27.75 14.75 20.62 11.12"/><polygon class="cls-29" points="28.64 35.18 28.48 35.26 28.48 36.55 28.64 36.47 28.64 35.18"/><polygon class="cls-30" points="29.1 34.95 28.94 35.03 28.94 36.32 29.1 36.24 29.1 34.95"/><polygon class="cls-31" points="29.56 34.72 29.4 34.8 29.4 36.09 29.56 36.01 29.56 34.72"/><polygon class="cls-32" points="30.02 34.49 29.86 34.58 29.86 35.87 30.02 35.78 30.02 34.49"/><polygon class="cls-33" points="30.48 34.27 30.32 34.35 30.32 35.64 30.48 35.56 30.48 34.27"/><polygon class="cls-34" points="30.94 34.04 30.78 34.12 30.78 35.41 30.94 35.33 30.94 34.04"/><polygon class="cls-35" points="31.4 33.81 31.24 33.89 31.24 35.18 31.4 35.1 31.4 33.81"/><polygon class="cls-36" points="31.86 33.59 31.7 33.67 31.7 34.95 31.86 34.88 31.86 33.59"/><polygon class="cls-37" points="32.32 33.36 32.16 33.44 32.16 34.73 32.32 34.65 32.32 33.36"/><polygon class="cls-38" points="32.78 33.13 32.62 33.21 32.62 34.5 32.78 34.42 32.78 33.13"/><polygon class="cls-39" points="33.24 32.9 33.08 32.98 33.08 34.27 33.24 34.19 33.24 32.9"/><polygon class="cls-40" points="33.7 32.68 33.54 32.76 33.54 34.05 33.7 33.97 33.7 32.68"/><polygon class="cls-41" points="34.16 32.45 34 32.53 34 33.82 34.16 33.74 34.16 32.45"/><polygon class="cls-42" points="34.62 32.22 34.46 32.3 34.46 33.59 34.62 33.51 34.62 32.22"/><polygon class="cls-43" points="35.08 31.99 34.92 32.07 34.92 33.36 35.08 33.28 35.08 31.99"/><polygon class="cls-44" points="35.54 31.77 35.38 31.85 35.38 33.14 35.54 33.06 35.54 31.77"/><polygon class="cls-45" points="36 31.54 35.84 31.62 35.84 32.91 36 32.83 36 31.54"/><polygon class="cls-46" points="36.46 31.31 36.3 31.39 36.3 32.68 36.46 32.6 36.46 31.31"/><polygon class="cls-47" points="36.92 31.08 36.76 31.16 36.76 32.45 36.92 32.37 36.92 31.08"/><polygon class="cls-48" points="37.38 30.86 37.22 30.94 37.22 32.23 37.38 32.15 37.38 30.86"/><polygon class="cls-49" points="37.84 30.63 37.68 30.71 37.68 32 37.84 31.92 37.84 30.63"/><polygon class="cls-50" points="37.97 12.52 28.23 17.38 28.23 19.93 37.97 15.06 37.97 12.52"/><polygon class="cls-26" points="37.65 12.68 37.65 15.23 37.97 15.06 37.97 12.52 37.65 12.68"/><polygon class="cls-26" points="28.5 17.48 28.5 19.51 30.21 18.66 30.21 16.63 28.5 17.48"/><polygon class="cls-26" points="36.89 13.29 36.89 15.32 37.4 15.06 37.4 13.04 36.89 13.29"/><polygon class="cls-26" points="35.69 13.89 35.69 15.92 36.2 15.66 36.2 13.64 35.69 13.89"/><polygon class="cls-26" points="34.49 14.49 34.49 16.52 35.01 16.26 35.01 14.24 34.49 14.49"/><polygon class="cls-26" points="33.3 15.09 33.3 17.11 33.81 16.86 33.81 14.83 33.3 15.09"/><polygon class="cls-26" points="32.1 15.69 32.1 17.71 32.61 17.46 32.61 15.43 32.1 15.69"/><polygon class="cls-26" points="30.9 16.29 30.9 18.31 31.41 18.06 31.41 16.03 30.9 16.29"/><polygon class="cls-51" points="28.81 18.77 28.72 18.82 28.72 19.09 28.81 19.05 28.81 18.77"/><polygon class="cls-51" points="28.81 18.77 28.72 18.82 28.72 19.09 28.81 19.05 28.81 18.77"/><polygon class="cls-51" points="28.81 18.77 28.72 18.82 28.72 19.09 28.81 19.05 28.81 18.77"/><polygon class="cls-51" points="28.81 18.77 28.72 18.82 28.72 19.09 28.81 19.05 28.81 18.77"/><polygon class="cls-51" points="28.81 18.77 28.72 18.82 28.72 19.09 28.81 19.05 28.81 18.77"/><polygon class="cls-51" points="28.81 18.77 28.72 18.82 28.72 19.09 28.81 19.05 28.81 18.77"/><polygon class="cls-51" points="28.81 18.77 28.72 18.82 28.72 19.09 28.81 19.05 28.81 18.77"/><polygon class="cls-51" points="28.81 18.77 28.72 18.82 28.72 19.09 28.81 19.05 28.81 18.77"/><polygon class="cls-51" points="28.81 18.77 28.72 18.82 28.72 19.09 28.81 19.05 28.81 18.77"/><polygon class="cls-51" points="28.81 18.77 28.72 18.82 28.72 19.09 28.81 19.05 28.81 18.77"/><polygon class="cls-51" points="28.81 18.77 28.72 18.82 28.72 19.09 28.81 19.05 28.81 18.77"/><polygon class="cls-51" points="28.81 18.77 28.72 18.82 28.72 19.09 28.81 19.05 28.81 18.77"/><polygon class="cls-51" points="28.81 18.77 28.72 18.82 28.72 19.09 28.81 19.05 28.81 18.77"/><polygon class="cls-51" points="28.81 18.77 28.72 18.82 28.72 19.09 28.81 19.05 28.81 18.77"/><polygon class="cls-51" points="28.81 18.77 28.72 18.82 28.72 19.09 28.81 19.05 28.81 18.77"/><polygon class="cls-51" points="28.81 18.77 28.72 18.82 28.72 19.09 28.81 19.05 28.81 18.77"/><polygon class="cls-51" points="28.81 18.77 28.72 18.82 28.72 19.09 28.81 19.05 28.81 18.77"/><polygon class="cls-51" points="28.81 18.77 28.72 18.82 28.72 19.09 28.81 19.05 28.81 18.77"/><polygon class="cls-51" points="28.81 18.77 28.72 18.82 28.72 19.09 28.81 19.05 28.81 18.77"/><polygon class="cls-51" points="28.81 18.77 28.72 18.82 28.72 19.09 28.81 19.05 28.81 18.77"/><polygon class="cls-51" points="28.81 18.77 28.72 18.82 28.72 19.09 28.81 19.05 28.81 18.77"/><polygon class="cls-51" points="28.81 18.77 28.72 18.82 28.72 19.09 28.81 19.05 28.81 18.77"/><polygon class="cls-51" points="28.81 18.77 28.72 18.82 28.72 19.09 28.81 19.05 28.81 18.77"/><polygon class="cls-51" points="28.81 18.77 28.72 18.82 28.72 19.09 28.81 19.05 28.81 18.77"/><polygon class="cls-51" points="28.81 18.77 28.72 18.82 28.72 19.09 28.81 19.05 28.81 18.77"/><polygon class="cls-51" points="28.81 18.77 28.72 18.82 28.72 19.09 28.81 19.05 28.81 18.77"/><polygon class="cls-51" points="28.81 18.77 28.72 18.82 28.72 19.09 28.81 19.05 28.81 18.77"/><polygon class="cls-51" points="28.81 18.77 28.72 18.82 28.72 19.09 28.81 19.05 28.81 18.77"/><polygon class="cls-51" points="28.81 18.77 28.72 18.82 28.72 19.09 28.81 19.05 28.81 18.77"/><polygon class="cls-52" points="28.98 18.68 28.89 18.73 28.89 19.01 28.98 18.96 28.98 18.68"/><polygon class="cls-53" points="29.15 18.6 29.06 18.64 29.06 18.92 29.15 18.88 29.15 18.6"/><polygon class="cls-54" points="29.32 18.51 29.23 18.56 29.23 18.84 29.32 18.79 29.32 18.51"/><polygon class="cls-55" points="29.49 18.43 29.4 18.47 29.4 18.75 29.49 18.7 29.49 18.43"/><polygon class="cls-56" points="29.66 18.34 29.57 18.39 29.57 18.66 29.66 18.62 29.66 18.34"/><polygon class="cls-57" points="29.83 18.25 29.73 18.3 29.73 18.58 29.83 18.53 29.83 18.25"/><polygon class="cls-58" points="30 18.17 29.9 18.21 29.9 18.49 30 18.45 30 18.17"/><polygon class="cls-59" points="31.28 16.36 31.03 16.48 31.03 16.7 31.28 16.57 31.28 16.36"/><polygon class="cls-60" points="32.48 15.76 32.23 15.89 32.23 16.1 32.48 15.97 32.48 15.76"/><polygon class="cls-61" points="33.68 15.17 33.43 15.29 33.43 15.5 33.68 15.38 33.68 15.17"/><polygon class="cls-62" points="34.88 14.57 34.62 14.7 34.62 14.91 34.88 14.78 34.88 14.57"/><polygon class="cls-63" points="36.07 13.97 35.82 14.1 35.82 14.31 36.07 14.19 36.07 13.97"/><polygon class="cls-64" points="37.27 13.38 37.02 13.5 37.02 13.71 37.27 13.59 37.27 13.38"/><polygon class="cls-65" points="31.28 17.59 31.03 17.71 31.03 17.92 31.28 17.8 31.28 17.59"/><polygon class="cls-66" points="32.48 16.99 32.23 17.12 32.23 17.33 32.48 17.2 32.48 16.99"/><polygon class="cls-67" points="33.68 16.4 33.43 16.52 33.43 16.73 33.68 16.61 33.68 16.4"/><polygon class="cls-68" points="34.88 15.8 34.62 15.92 34.62 16.14 34.88 16.01 34.88 15.8"/><polygon class="cls-69" points="36.07 15.2 35.82 15.33 35.82 15.54 36.07 15.41 36.07 15.2"/><polygon class="cls-70" points="37.27 14.61 37.02 14.73 37.02 14.94 37.27 14.82 37.27 14.61"/><polygon class="cls-71" points="30 17.04 28.72 17.68 28.72 18.56 30 17.92 30 17.04"/><polygon class="cls-72" points="30.44 17.73 37.55 14.2 37.46 13.85 30.44 17.33 30.44 17.73"/><polygon class="cls-73" points="37.96 15.33 28.22 20.19 28.22 22.74 37.96 17.88 37.96 15.33"/><polygon class="cls-26" points="37.64 15.49 37.64 18.04 37.96 17.88 37.96 15.33 37.64 15.49"/><polygon class="cls-26" points="28.49 20.3 28.49 22.32 30.2 21.47 30.2 19.44 28.49 20.3"/><polygon class="cls-26" points="36.88 16.11 36.88 18.13 37.39 17.88 37.39 15.85 36.88 16.11"/><polygon class="cls-26" points="35.68 16.7 35.68 18.73 36.19 18.47 36.19 16.45 35.68 16.7"/><polygon class="cls-26" points="34.48 17.3 34.48 19.33 35 19.07 35 17.05 34.48 17.3"/><polygon class="cls-26" points="33.28 17.9 33.28 19.93 33.8 19.67 33.8 17.65 33.28 17.9"/><polygon class="cls-26" points="32.09 18.5 32.09 20.52 32.6 20.27 32.6 18.25 32.09 18.5"/><polygon class="cls-26" points="30.89 19.1 30.89 21.12 31.4 20.87 31.4 18.84 30.89 19.1"/><polygon class="cls-74" points="28.8 21.58 28.71 21.63 28.71 21.91 28.8 21.86 28.8 21.58"/><polygon class="cls-74" points="28.8 21.58 28.71 21.63 28.71 21.91 28.8 21.86 28.8 21.58"/><polygon class="cls-74" points="28.8 21.58 28.71 21.63 28.71 21.91 28.8 21.86 28.8 21.58"/><polygon class="cls-74" points="28.8 21.58 28.71 21.63 28.71 21.91 28.8 21.86 28.8 21.58"/><polygon class="cls-74" points="28.8 21.58 28.71 21.63 28.71 21.91 28.8 21.86 28.8 21.58"/><polygon class="cls-74" points="28.8 21.58 28.71 21.63 28.71 21.91 28.8 21.86 28.8 21.58"/><polygon class="cls-74" points="28.8 21.58 28.71 21.63 28.71 21.91 28.8 21.86 28.8 21.58"/><polygon class="cls-74" points="28.8 21.58 28.71 21.63 28.71 21.91 28.8 21.86 28.8 21.58"/><polygon class="cls-74" points="28.8 21.58 28.71 21.63 28.71 21.91 28.8 21.86 28.8 21.58"/><polygon class="cls-74" points="28.8 21.58 28.71 21.63 28.71 21.91 28.8 21.86 28.8 21.58"/><polygon class="cls-74" points="28.8 21.58 28.71 21.63 28.71 21.91 28.8 21.86 28.8 21.58"/><polygon class="cls-74" points="28.8 21.58 28.71 21.63 28.71 21.91 28.8 21.86 28.8 21.58"/><polygon class="cls-74" points="28.8 21.58 28.71 21.63 28.71 21.91 28.8 21.86 28.8 21.58"/><polygon class="cls-74" points="28.8 21.58 28.71 21.63 28.71 21.91 28.8 21.86 28.8 21.58"/><polygon class="cls-74" points="28.8 21.58 28.71 21.63 28.71 21.91 28.8 21.86 28.8 21.58"/><polygon class="cls-74" points="28.8 21.58 28.71 21.63 28.71 21.91 28.8 21.86 28.8 21.58"/><polygon class="cls-74" points="28.8 21.58 28.71 21.63 28.71 21.91 28.8 21.86 28.8 21.58"/><polygon class="cls-74" points="28.8 21.58 28.71 21.63 28.71 21.91 28.8 21.86 28.8 21.58"/><polygon class="cls-74" points="28.8 21.58 28.71 21.63 28.71 21.91 28.8 21.86 28.8 21.58"/><polygon class="cls-74" points="28.8 21.58 28.71 21.63 28.71 21.91 28.8 21.86 28.8 21.58"/><polygon class="cls-74" points="28.8 21.58 28.71 21.63 28.71 21.91 28.8 21.86 28.8 21.58"/><polygon class="cls-74" points="28.8 21.58 28.71 21.63 28.71 21.91 28.8 21.86 28.8 21.58"/><polygon class="cls-74" points="28.8 21.58 28.71 21.63 28.71 21.91 28.8 21.86 28.8 21.58"/><polygon class="cls-74" points="28.8 21.58 28.71 21.63 28.71 21.91 28.8 21.86 28.8 21.58"/><polygon class="cls-74" points="28.8 21.58 28.71 21.63 28.71 21.91 28.8 21.86 28.8 21.58"/><polygon class="cls-74" points="28.8 21.58 28.71 21.63 28.71 21.91 28.8 21.86 28.8 21.58"/><polygon class="cls-74" points="28.8 21.58 28.71 21.63 28.71 21.91 28.8 21.86 28.8 21.58"/><polygon class="cls-74" points="28.8 21.58 28.71 21.63 28.71 21.91 28.8 21.86 28.8 21.58"/><polygon class="cls-74" points="28.8 21.58 28.71 21.63 28.71 21.91 28.8 21.86 28.8 21.58"/><polygon class="cls-75" points="28.97 21.49 28.88 21.54 28.88 21.82 28.97 21.77 28.97 21.49"/><polygon class="cls-76" points="29.14 21.41 29.05 21.45 29.05 21.73 29.14 21.69 29.14 21.41"/><polygon class="cls-77" points="29.31 21.32 29.22 21.37 29.22 21.65 29.31 21.6 29.31 21.32"/><polygon class="cls-78" points="29.48 21.24 29.39 21.28 29.39 21.56 29.48 21.52 29.48 21.24"/><polygon class="cls-79" points="29.65 21.15 29.56 21.2 29.56 21.48 29.65 21.43 29.65 21.15"/><polygon class="cls-80" points="29.82 21.07 29.73 21.11 29.73 21.39 29.82 21.34 29.82 21.07"/><polygon class="cls-81" points="29.98 20.98 29.89 21.03 29.89 21.3 29.98 21.26 29.98 20.98"/><polygon class="cls-82" points="31.27 19.17 31.02 19.3 31.02 19.51 31.27 19.38 31.27 19.17"/><polygon class="cls-83" points="32.47 18.57 32.22 18.7 32.22 18.91 32.47 18.79 32.47 18.57"/><polygon class="cls-84" points="33.67 17.98 33.42 18.1 33.42 18.32 33.67 18.19 33.67 17.98"/><polygon class="cls-85" points="34.87 17.38 34.61 17.51 34.61 17.72 34.87 17.59 34.87 17.38"/><polygon class="cls-86" points="36.06 16.79 35.81 16.91 35.81 17.12 36.06 17 36.06 16.79"/><polygon class="cls-87" points="37.26 16.19 37.01 16.32 37.01 16.53 37.26 16.4 37.26 16.19"/><polygon class="cls-88" points="31.27 20.4 31.02 20.52 31.02 20.73 31.27 20.61 31.27 20.4"/><polygon class="cls-89" points="32.47 19.8 32.22 19.93 32.22 20.14 32.47 20.01 32.47 19.8"/><polygon class="cls-90" points="33.67 19.21 33.42 19.33 33.42 19.54 33.67 19.42 33.67 19.21"/><polygon class="cls-91" points="34.87 18.61 34.61 18.74 34.61 18.95 34.87 18.82 34.87 18.61"/><polygon class="cls-92" points="36.06 18.02 35.81 18.14 35.81 18.35 36.06 18.23 36.06 18.02"/><polygon class="cls-93" points="37.26 17.42 37.01 17.54 37.01 17.75 37.26 17.63 37.26 17.42"/><polygon class="cls-94" points="29.99 19.85 28.71 20.49 28.71 21.37 29.99 20.73 29.99 19.85"/><polygon class="cls-95" points="30.43 20.55 37.54 17.01 37.45 16.66 30.43 20.14 30.43 20.55"/><polygon class="cls-96" points="37.97 18.14 28.23 23 28.23 25.55 37.97 20.69 37.97 18.14"/><polygon class="cls-26" points="37.65 18.3 37.65 20.85 37.97 20.69 37.97 18.14 37.65 18.3"/><polygon class="cls-26" points="28.5 23.11 28.5 25.13 30.21 24.28 30.21 22.26 28.5 23.11"/><polygon class="cls-26" points="36.89 18.92 36.89 20.94 37.4 20.69 37.4 18.66 36.89 18.92"/><polygon class="cls-26" points="35.69 19.52 35.69 21.54 36.2 21.29 36.2 19.26 35.69 19.52"/><polygon class="cls-26" points="34.49 20.11 34.49 22.14 35.01 21.89 35.01 19.86 34.49 20.11"/><polygon class="cls-26" points="33.3 20.71 33.3 22.74 33.81 22.48 33.81 20.46 33.3 20.71"/><polygon class="cls-26" points="32.1 21.31 32.1 23.34 32.61 23.08 32.61 21.06 32.1 21.31"/><polygon class="cls-26" points="30.9 21.91 30.9 23.93 31.41 23.68 31.41 21.66 30.9 21.91"/><polygon class="cls-97" points="28.81 24.39 28.72 24.44 28.72 24.72 28.81 24.67 28.81 24.39"/><polygon class="cls-97" points="28.81 24.39 28.72 24.44 28.72 24.72 28.81 24.67 28.81 24.39"/><polygon class="cls-97" points="28.81 24.39 28.72 24.44 28.72 24.72 28.81 24.67 28.81 24.39"/><polygon class="cls-97" points="28.81 24.39 28.72 24.44 28.72 24.72 28.81 24.67 28.81 24.39"/><polygon class="cls-97" points="28.81 24.39 28.72 24.44 28.72 24.72 28.81 24.67 28.81 24.39"/><polygon class="cls-97" points="28.81 24.39 28.72 24.44 28.72 24.72 28.81 24.67 28.81 24.39"/><polygon class="cls-97" points="28.81 24.39 28.72 24.44 28.72 24.72 28.81 24.67 28.81 24.39"/><polygon class="cls-97" points="28.81 24.39 28.72 24.44 28.72 24.72 28.81 24.67 28.81 24.39"/><polygon class="cls-97" points="28.81 24.39 28.72 24.44 28.72 24.72 28.81 24.67 28.81 24.39"/><polygon class="cls-97" points="28.81 24.39 28.72 24.44 28.72 24.72 28.81 24.67 28.81 24.39"/><polygon class="cls-97" points="28.81 24.39 28.72 24.44 28.72 24.72 28.81 24.67 28.81 24.39"/><polygon class="cls-97" points="28.81 24.39 28.72 24.44 28.72 24.72 28.81 24.67 28.81 24.39"/><polygon class="cls-97" points="28.81 24.39 28.72 24.44 28.72 24.72 28.81 24.67 28.81 24.39"/><polygon class="cls-97" points="28.81 24.39 28.72 24.44 28.72 24.72 28.81 24.67 28.81 24.39"/><polygon class="cls-97" points="28.81 24.39 28.72 24.44 28.72 24.72 28.81 24.67 28.81 24.39"/><polygon class="cls-97" points="28.81 24.39 28.72 24.44 28.72 24.72 28.81 24.67 28.81 24.39"/><polygon class="cls-97" points="28.81 24.39 28.72 24.44 28.72 24.72 28.81 24.67 28.81 24.39"/><polygon class="cls-97" points="28.81 24.39 28.72 24.44 28.72 24.72 28.81 24.67 28.81 24.39"/><polygon class="cls-97" points="28.81 24.39 28.72 24.44 28.72 24.72 28.81 24.67 28.81 24.39"/><polygon class="cls-97" points="28.81 24.39 28.72 24.44 28.72 24.72 28.81 24.67 28.81 24.39"/><polygon class="cls-97" points="28.81 24.39 28.72 24.44 28.72 24.72 28.81 24.67 28.81 24.39"/><polygon class="cls-97" points="28.81 24.39 28.72 24.44 28.72 24.72 28.81 24.67 28.81 24.39"/><polygon class="cls-97" points="28.81 24.39 28.72 24.44 28.72 24.72 28.81 24.67 28.81 24.39"/><polygon class="cls-97" points="28.81 24.39 28.72 24.44 28.72 24.72 28.81 24.67 28.81 24.39"/><polygon class="cls-97" points="28.81 24.39 28.72 24.44 28.72 24.72 28.81 24.67 28.81 24.39"/><polygon class="cls-97" points="28.81 24.39 28.72 24.44 28.72 24.72 28.81 24.67 28.81 24.39"/><polygon class="cls-97" points="28.81 24.39 28.72 24.44 28.72 24.72 28.81 24.67 28.81 24.39"/><polygon class="cls-97" points="28.81 24.39 28.72 24.44 28.72 24.72 28.81 24.67 28.81 24.39"/><polygon class="cls-97" points="28.81 24.39 28.72 24.44 28.72 24.72 28.81 24.67 28.81 24.39"/><polygon class="cls-98" points="28.98 24.31 28.89 24.35 28.89 24.63 28.98 24.59 28.98 24.31"/><polygon class="cls-99" points="29.15 24.22 29.06 24.27 29.06 24.55 29.15 24.5 29.15 24.22"/><polygon class="cls-100" points="29.32 24.14 29.23 24.18 29.23 24.46 29.32 24.41 29.32 24.14"/><polygon class="cls-101" points="29.49 24.05 29.4 24.1 29.4 24.37 29.49 24.33 29.49 24.05"/><polygon class="cls-102" points="29.66 23.96 29.57 24.01 29.57 24.29 29.66 24.24 29.66 23.96"/><polygon class="cls-103" points="29.83 23.88 29.73 23.93 29.73 24.2 29.83 24.16 29.83 23.88"/><polygon class="cls-104" points="30 23.79 29.9 23.84 29.9 24.12 30 24.07 30 23.79"/><polygon class="cls-105" points="31.28 21.98 31.03 22.11 31.03 22.32 31.28 22.19 31.28 21.98"/><polygon class="cls-106" points="32.48 21.39 32.23 21.51 32.23 21.72 32.48 21.6 32.48 21.39"/><polygon class="cls-107" points="33.68 20.79 33.43 20.91 33.43 21.13 33.68 21 33.68 20.79"/><polygon class="cls-108" points="34.88 20.2 34.62 20.32 34.62 20.53 34.88 20.41 34.88 20.2"/><polygon class="cls-109" points="36.07 19.6 35.82 19.72 35.82 19.93 36.07 19.81 36.07 19.6"/><polygon class="cls-110" points="37.27 19 37.02 19.13 37.02 19.34 37.27 19.21 37.27 19"/><polygon class="cls-111" points="31.28 23.21 31.03 23.34 31.03 23.55 31.28 23.42 31.28 23.21"/><polygon class="cls-112" points="32.48 22.61 32.23 22.74 32.23 22.95 32.48 22.83 32.48 22.61"/><polygon class="cls-113" points="33.68 22.02 33.43 22.14 33.43 22.36 33.68 22.23 33.68 22.02"/><polygon class="cls-114" points="34.88 21.42 34.62 21.55 34.62 21.76 34.88 21.63 34.88 21.42"/><polygon class="cls-115" points="36.07 20.83 35.82 20.95 35.82 21.16 36.07 21.04 36.07 20.83"/><polygon class="cls-116" points="37.27 20.23 37.02 20.36 37.02 20.57 37.27 20.44 37.27 20.23"/><polygon class="cls-117" points="30 22.66 28.72 23.3 28.72 24.18 30 23.54 30 22.66"/><polygon class="cls-118" points="30.44 23.36 37.55 19.83 37.46 19.47 30.44 22.95 30.44 23.36"/><polygon class="cls-119" points="37.97 20.95 28.23 25.82 28.23 28.36 37.97 23.5 37.97 20.95"/><polygon class="cls-26" points="37.65 21.11 37.65 23.66 37.97 23.5 37.97 20.95 37.65 21.11"/><polygon class="cls-26" points="28.5 25.92 28.5 27.94 30.21 27.09 30.21 25.07 28.5 25.92"/><polygon class="cls-26" points="36.89 21.73 36.89 23.75 37.4 23.5 37.4 21.47 36.89 21.73"/><polygon class="cls-26" points="35.69 22.33 35.69 24.35 36.2 24.1 36.2 22.07 35.69 22.33"/><polygon class="cls-26" points="34.49 22.93 34.49 24.95 35.01 24.7 35.01 22.67 34.49 22.93"/><polygon class="cls-26" points="33.3 23.52 33.3 25.55 33.81 25.3 33.81 23.27 33.3 23.52"/><polygon class="cls-26" points="32.1 24.12 32.1 26.15 32.61 25.89 32.61 23.87 32.1 24.12"/><polygon class="cls-26" points="30.9 24.72 30.9 26.75 31.41 26.49 31.41 24.47 30.9 24.72"/><polygon class="cls-120" points="28.81 27.2 28.72 27.25 28.72 27.53 28.81 27.48 28.81 27.2"/><polygon class="cls-120" points="28.81 27.2 28.72 27.25 28.72 27.53 28.81 27.48 28.81 27.2"/><polygon class="cls-120" points="28.81 27.2 28.72 27.25 28.72 27.53 28.81 27.48 28.81 27.2"/><polygon class="cls-120" points="28.81 27.2 28.72 27.25 28.72 27.53 28.81 27.48 28.81 27.2"/><polygon class="cls-120" points="28.81 27.2 28.72 27.25 28.72 27.53 28.81 27.48 28.81 27.2"/><polygon class="cls-120" points="28.81 27.2 28.72 27.25 28.72 27.53 28.81 27.48 28.81 27.2"/><polygon class="cls-120" points="28.81 27.2 28.72 27.25 28.72 27.53 28.81 27.48 28.81 27.2"/><polygon class="cls-120" points="28.81 27.2 28.72 27.25 28.72 27.53 28.81 27.48 28.81 27.2"/><polygon class="cls-120" points="28.81 27.2 28.72 27.25 28.72 27.53 28.81 27.48 28.81 27.2"/><polygon class="cls-120" points="28.81 27.2 28.72 27.25 28.72 27.53 28.81 27.48 28.81 27.2"/><polygon class="cls-120" points="28.81 27.2 28.72 27.25 28.72 27.53 28.81 27.48 28.81 27.2"/><polygon class="cls-120" points="28.81 27.2 28.72 27.25 28.72 27.53 28.81 27.48 28.81 27.2"/><polygon class="cls-120" points="28.81 27.2 28.72 27.25 28.72 27.53 28.81 27.48 28.81 27.2"/><polygon class="cls-120" points="28.81 27.2 28.72 27.25 28.72 27.53 28.81 27.48 28.81 27.2"/><polygon class="cls-120" points="28.81 27.2 28.72 27.25 28.72 27.53 28.81 27.48 28.81 27.2"/><polygon class="cls-120" points="28.81 27.2 28.72 27.25 28.72 27.53 28.81 27.48 28.81 27.2"/><polygon class="cls-120" points="28.81 27.2 28.72 27.25 28.72 27.53 28.81 27.48 28.81 27.2"/><polygon class="cls-120" points="28.81 27.2 28.72 27.25 28.72 27.53 28.81 27.48 28.81 27.2"/><polygon class="cls-120" points="28.81 27.2 28.72 27.25 28.72 27.53 28.81 27.48 28.81 27.2"/><polygon class="cls-120" points="28.81 27.2 28.72 27.25 28.72 27.53 28.81 27.48 28.81 27.2"/><polygon class="cls-120" points="28.81 27.2 28.72 27.25 28.72 27.53 28.81 27.48 28.81 27.2"/><polygon class="cls-120" points="28.81 27.2 28.72 27.25 28.72 27.53 28.81 27.48 28.81 27.2"/><polygon class="cls-120" points="28.81 27.2 28.72 27.25 28.72 27.53 28.81 27.48 28.81 27.2"/><polygon class="cls-120" points="28.81 27.2 28.72 27.25 28.72 27.53 28.81 27.48 28.81 27.2"/><polygon class="cls-120" points="28.81 27.2 28.72 27.25 28.72 27.53 28.81 27.48 28.81 27.2"/><polygon class="cls-120" points="28.81 27.2 28.72 27.25 28.72 27.53 28.81 27.48 28.81 27.2"/><polygon class="cls-120" points="28.81 27.2 28.72 27.25 28.72 27.53 28.81 27.48 28.81 27.2"/><polygon class="cls-120" points="28.81 27.2 28.72 27.25 28.72 27.53 28.81 27.48 28.81 27.2"/><polygon class="cls-120" points="28.81 27.2 28.72 27.25 28.72 27.53 28.81 27.48 28.81 27.2"/><polygon class="cls-121" points="28.98 27.12 28.89 27.16 28.89 27.44 28.98 27.4 28.98 27.12"/><polygon class="cls-122" points="29.15 27.03 29.06 27.08 29.06 27.36 29.15 27.31 29.15 27.03"/><polygon class="cls-123" points="29.32 26.95 29.23 26.99 29.23 27.27 29.32 27.23 29.32 26.95"/><polygon class="cls-124" points="29.49 26.86 29.4 26.91 29.4 27.19 29.49 27.14 29.49 26.86"/><polygon class="cls-125" points="29.66 26.77 29.57 26.82 29.57 27.1 29.66 27.05 29.66 26.77"/><polygon class="cls-126" points="29.83 26.69 29.73 26.74 29.73 27.02 29.83 26.97 29.83 26.69"/><polygon class="cls-127" points="30 26.6 29.9 26.65 29.9 26.93 30 26.88 30 26.6"/><polygon class="cls-128" points="31.28 24.79 31.03 24.92 31.03 25.13 31.28 25.01 31.28 24.79"/><polygon class="cls-129" points="32.48 24.2 32.23 24.32 32.23 24.53 32.48 24.41 32.48 24.2"/><polygon class="cls-130" points="33.68 23.6 33.43 23.73 33.43 23.94 33.68 23.81 33.68 23.6"/><polygon class="cls-131" points="34.88 23.01 34.62 23.13 34.62 23.34 34.88 23.22 34.88 23.01"/><polygon class="cls-132" points="36.07 22.41 35.82 22.54 35.82 22.75 36.07 22.62 36.07 22.41"/><polygon class="cls-133" points="37.27 21.81 37.02 21.94 37.02 22.15 37.27 22.03 37.27 21.81"/><polygon class="cls-134" points="31.28 26.02 31.03 26.15 31.03 26.36 31.28 26.23 31.28 26.02"/><polygon class="cls-135" points="32.48 25.43 32.23 25.55 32.23 25.76 32.48 25.64 32.48 25.43"/><polygon class="cls-136" points="33.68 24.83 33.43 24.96 33.43 25.17 33.68 25.04 33.68 24.83"/><polygon class="cls-137" points="34.88 24.23 34.62 24.36 34.62 24.57 34.88 24.45 34.88 24.23"/><polygon class="cls-138" points="36.07 23.64 35.82 23.76 35.82 23.98 36.07 23.85 36.07 23.64"/><polygon class="cls-139" points="37.27 23.04 37.02 23.17 37.02 23.38 37.27 23.25 37.27 23.04"/><polygon class="cls-140" points="30 25.47 28.72 26.11 28.72 26.99 30 26.35 30 25.47"/><polygon class="cls-141" points="30.44 26.17 37.55 22.64 37.46 22.28 30.44 25.77 30.44 26.17"/><polygon class="cls-142" points="37.97 23.77 28.23 28.63 28.23 31.18 37.97 26.31 37.97 23.77"/><polygon class="cls-26" points="37.65 23.93 37.65 26.47 37.97 26.31 37.97 23.77 37.65 23.93"/><polygon class="cls-26" points="28.5 28.73 28.5 30.76 30.21 29.91 30.21 27.88 28.5 28.73"/><polygon class="cls-26" points="36.89 24.54 36.89 26.57 37.4 26.31 37.4 24.29 36.89 24.54"/><polygon class="cls-26" points="35.69 25.14 35.69 27.16 36.2 26.91 36.2 24.88 35.69 25.14"/><polygon class="cls-26" points="34.49 25.74 34.49 27.76 35.01 27.51 35.01 25.48 34.49 25.74"/><polygon class="cls-26" points="33.3 26.34 33.3 28.36 33.81 28.11 33.81 26.08 33.3 26.34"/><polygon class="cls-26" points="32.1 26.93 32.1 28.96 32.61 28.7 32.61 26.68 32.1 26.93"/><polygon class="cls-26" points="30.9 27.53 30.9 29.56 31.41 29.3 31.41 27.28 30.9 27.53"/><polygon class="cls-143" points="28.81 30.02 28.72 30.06 28.72 30.34 28.81 30.29 28.81 30.02"/><polygon class="cls-143" points="28.81 30.02 28.72 30.06 28.72 30.34 28.81 30.29 28.81 30.02"/><polygon class="cls-143" points="28.81 30.02 28.72 30.06 28.72 30.34 28.81 30.29 28.81 30.02"/><polygon class="cls-143" points="28.81 30.02 28.72 30.06 28.72 30.34 28.81 30.29 28.81 30.02"/><polygon class="cls-143" points="28.81 30.02 28.72 30.06 28.72 30.34 28.81 30.29 28.81 30.02"/><polygon class="cls-143" points="28.81 30.02 28.72 30.06 28.72 30.34 28.81 30.29 28.81 30.02"/><polygon class="cls-143" points="28.81 30.02 28.72 30.06 28.72 30.34 28.81 30.29 28.81 30.02"/><polygon class="cls-143" points="28.81 30.02 28.72 30.06 28.72 30.34 28.81 30.29 28.81 30.02"/><polygon class="cls-143" points="28.81 30.02 28.72 30.06 28.72 30.34 28.81 30.29 28.81 30.02"/><polygon class="cls-143" points="28.81 30.02 28.72 30.06 28.72 30.34 28.81 30.29 28.81 30.02"/><polygon class="cls-143" points="28.81 30.02 28.72 30.06 28.72 30.34 28.81 30.29 28.81 30.02"/><polygon class="cls-143" points="28.81 30.02 28.72 30.06 28.72 30.34 28.81 30.29 28.81 30.02"/><polygon class="cls-143" points="28.81 30.02 28.72 30.06 28.72 30.34 28.81 30.29 28.81 30.02"/><polygon class="cls-143" points="28.81 30.02 28.72 30.06 28.72 30.34 28.81 30.29 28.81 30.02"/><polygon class="cls-143" points="28.81 30.02 28.72 30.06 28.72 30.34 28.81 30.29 28.81 30.02"/><polygon class="cls-143" points="28.81 30.02 28.72 30.06 28.72 30.34 28.81 30.29 28.81 30.02"/><polygon class="cls-143" points="28.81 30.02 28.72 30.06 28.72 30.34 28.81 30.29 28.81 30.02"/><polygon class="cls-143" points="28.81 30.02 28.72 30.06 28.72 30.34 28.81 30.29 28.81 30.02"/><polygon class="cls-143" points="28.81 30.02 28.72 30.06 28.72 30.34 28.81 30.29 28.81 30.02"/><polygon class="cls-143" points="28.81 30.02 28.72 30.06 28.72 30.34 28.81 30.29 28.81 30.02"/><polygon class="cls-143" points="28.81 30.02 28.72 30.06 28.72 30.34 28.81 30.29 28.81 30.02"/><polygon class="cls-143" points="28.81 30.02 28.72 30.06 28.72 30.34 28.81 30.29 28.81 30.02"/><polygon class="cls-143" points="28.81 30.02 28.72 30.06 28.72 30.34 28.81 30.29 28.81 30.02"/><polygon class="cls-143" points="28.81 30.02 28.72 30.06 28.72 30.34 28.81 30.29 28.81 30.02"/><polygon class="cls-143" points="28.81 30.02 28.72 30.06 28.72 30.34 28.81 30.29 28.81 30.02"/><polygon class="cls-143" points="28.81 30.02 28.72 30.06 28.72 30.34 28.81 30.29 28.81 30.02"/><polygon class="cls-143" points="28.81 30.02 28.72 30.06 28.72 30.34 28.81 30.29 28.81 30.02"/><polygon class="cls-143" points="28.81 30.02 28.72 30.06 28.72 30.34 28.81 30.29 28.81 30.02"/><polygon class="cls-143" points="28.81 30.02 28.72 30.06 28.72 30.34 28.81 30.29 28.81 30.02"/><polygon class="cls-144" points="28.98 29.93 28.89 29.98 28.89 30.25 28.98 30.21 28.98 29.93"/><polygon class="cls-145" points="29.15 29.84 29.06 29.89 29.06 30.17 29.15 30.12 29.15 29.84"/><polygon class="cls-146" points="29.32 29.76 29.23 29.8 29.23 30.08 29.32 30.04 29.32 29.76"/><polygon class="cls-147" points="29.49 29.67 29.4 29.72 29.4 30 29.49 29.95 29.49 29.67"/><polygon class="cls-148" points="29.66 29.59 29.57 29.63 29.57 29.91 29.66 29.86 29.66 29.59"/><polygon class="cls-149" points="29.83 29.5 29.73 29.55 29.73 29.83 29.83 29.78 29.83 29.5"/><polygon class="cls-150" points="30 29.41 29.9 29.46 29.9 29.74 30 29.69 30 29.41"/><polygon class="cls-151" points="31.28 27.61 31.03 27.73 31.03 27.94 31.28 27.82 31.28 27.61"/><polygon class="cls-152" points="32.48 27.01 32.23 27.14 32.23 27.35 32.48 27.22 32.48 27.01"/><polygon class="cls-153" points="33.68 26.41 33.43 26.54 33.43 26.75 33.68 26.63 33.68 26.41"/><polygon class="cls-154" points="34.88 25.82 34.62 25.94 34.62 26.15 34.88 26.03 34.88 25.82"/><polygon class="cls-155" points="36.07 25.22 35.82 25.35 35.82 25.56 36.07 25.43 36.07 25.22"/><polygon class="cls-156" points="37.27 24.63 37.02 24.75 37.02 24.96 37.27 24.84 37.27 24.63"/><polygon class="cls-157" points="31.28 28.84 31.03 28.96 31.03 29.17 31.28 29.05 31.28 28.84"/><polygon class="cls-158" points="32.48 28.24 32.23 28.36 32.23 28.57 32.48 28.45 32.48 28.24"/><polygon class="cls-159" points="33.68 27.64 33.43 27.77 33.43 27.98 33.68 27.85 33.68 27.64"/><polygon class="cls-160" points="34.88 27.05 34.62 27.17 34.62 27.38 34.88 27.26 34.88 27.05"/><polygon class="cls-161" points="36.07 26.45 35.82 26.57 35.82 26.79 36.07 26.66 36.07 26.45"/><polygon class="cls-162" points="37.27 25.85 37.02 25.98 37.02 26.19 37.27 26.07 37.27 25.85"/><polygon class="cls-163" points="30 28.28 28.72 28.92 28.72 29.81 30 29.16 30 28.28"/><polygon class="cls-164" points="30.44 28.98 37.55 25.45 37.46 25.09 30.44 28.58 30.44 28.98"/><polygon class="cls-165" points="37.97 26.58 28.23 31.44 28.23 33.99 37.97 29.12 37.97 26.58"/><polygon class="cls-26" points="37.65 26.74 37.65 29.28 37.97 29.12 37.97 26.58 37.65 26.74"/><polygon class="cls-26" points="28.5 31.54 28.5 33.57 30.21 32.72 30.21 30.69 28.5 31.54"/><polygon class="cls-26" points="36.89 27.35 36.89 29.38 37.4 29.12 37.4 27.1 36.89 27.35"/><polygon class="cls-26" points="35.69 27.95 35.69 29.98 36.2 29.72 36.2 27.7 35.69 27.95"/><polygon class="cls-26" points="34.49 28.55 34.49 30.57 35.01 30.32 35.01 28.29 34.49 28.55"/><polygon class="cls-26" points="33.3 29.15 33.3 31.17 33.81 30.92 33.81 28.89 33.3 29.15"/><polygon class="cls-26" points="32.1 29.75 32.1 31.77 32.61 31.52 32.61 29.49 32.1 29.75"/><polygon class="cls-26" points="30.9 30.35 30.9 32.37 31.41 32.12 31.41 30.09 30.9 30.35"/><polygon class="cls-166" points="28.81 32.83 28.72 32.87 28.72 33.15 28.81 33.1 28.81 32.83"/><polygon class="cls-166" points="28.81 32.83 28.72 32.87 28.72 33.15 28.81 33.1 28.81 32.83"/><polygon class="cls-166" points="28.81 32.83 28.72 32.87 28.72 33.15 28.81 33.1 28.81 32.83"/><polygon class="cls-166" points="28.81 32.83 28.72 32.87 28.72 33.15 28.81 33.1 28.81 32.83"/><polygon class="cls-166" points="28.81 32.83 28.72 32.87 28.72 33.15 28.81 33.1 28.81 32.83"/><polygon class="cls-166" points="28.81 32.83 28.72 32.87 28.72 33.15 28.81 33.1 28.81 32.83"/><polygon class="cls-166" points="28.81 32.83 28.72 32.87 28.72 33.15 28.81 33.1 28.81 32.83"/><polygon class="cls-166" points="28.81 32.83 28.72 32.87 28.72 33.15 28.81 33.1 28.81 32.83"/><polygon class="cls-166" points="28.81 32.83 28.72 32.87 28.72 33.15 28.81 33.1 28.81 32.83"/><polygon class="cls-166" points="28.81 32.83 28.72 32.87 28.72 33.15 28.81 33.1 28.81 32.83"/><polygon class="cls-166" points="28.81 32.83 28.72 32.87 28.72 33.15 28.81 33.1 28.81 32.83"/><polygon class="cls-166" points="28.81 32.83 28.72 32.87 28.72 33.15 28.81 33.1 28.81 32.83"/><polygon class="cls-166" points="28.81 32.83 28.72 32.87 28.72 33.15 28.81 33.1 28.81 32.83"/><polygon class="cls-166" points="28.81 32.83 28.72 32.87 28.72 33.15 28.81 33.1 28.81 32.83"/><polygon class="cls-166" points="28.81 32.83 28.72 32.87 28.72 33.15 28.81 33.1 28.81 32.83"/><polygon class="cls-166" points="28.81 32.83 28.72 32.87 28.72 33.15 28.81 33.1 28.81 32.83"/><polygon class="cls-166" points="28.81 32.83 28.72 32.87 28.72 33.15 28.81 33.1 28.81 32.83"/><polygon class="cls-166" points="28.81 32.83 28.72 32.87 28.72 33.15 28.81 33.1 28.81 32.83"/><polygon class="cls-166" points="28.81 32.83 28.72 32.87 28.72 33.15 28.81 33.1 28.81 32.83"/><polygon class="cls-166" points="28.81 32.83 28.72 32.87 28.72 33.15 28.81 33.1 28.81 32.83"/><polygon class="cls-166" points="28.81 32.83 28.72 32.87 28.72 33.15 28.81 33.1 28.81 32.83"/><polygon class="cls-166" points="28.81 32.83 28.72 32.87 28.72 33.15 28.81 33.1 28.81 32.83"/><polygon class="cls-166" points="28.81 32.83 28.72 32.87 28.72 33.15 28.81 33.1 28.81 32.83"/><polygon class="cls-166" points="28.81 32.83 28.72 32.87 28.72 33.15 28.81 33.1 28.81 32.83"/><polygon class="cls-166" points="28.81 32.83 28.72 32.87 28.72 33.15 28.81 33.1 28.81 32.83"/><polygon class="cls-166" points="28.81 32.83 28.72 32.87 28.72 33.15 28.81 33.1 28.81 32.83"/><polygon class="cls-166" points="28.81 32.83 28.72 32.87 28.72 33.15 28.81 33.1 28.81 32.83"/><polygon class="cls-166" points="28.81 32.83 28.72 32.87 28.72 33.15 28.81 33.1 28.81 32.83"/><polygon class="cls-166" points="28.81 32.83 28.72 32.87 28.72 33.15 28.81 33.1 28.81 32.83"/><polygon class="cls-167" points="28.98 32.74 28.89 32.79 28.89 33.07 28.98 33.02 28.98 32.74"/><polygon class="cls-168" points="29.15 32.66 29.06 32.7 29.06 32.98 29.15 32.93 29.15 32.66"/><polygon class="cls-169" points="29.32 32.57 29.23 32.62 29.23 32.89 29.32 32.85 29.32 32.57"/><polygon class="cls-170" points="29.49 32.48 29.4 32.53 29.4 32.81 29.49 32.76 29.49 32.48"/><polygon class="cls-171" points="29.66 32.4 29.57 32.44 29.57 32.72 29.66 32.68 29.66 32.4"/><polygon class="cls-172" points="29.83 32.31 29.73 32.36 29.73 32.64 29.83 32.59 29.83 32.31"/><polygon class="cls-173" points="30 32.23 29.9 32.27 29.9 32.55 30 32.51 30 32.23"/><polygon class="cls-174" points="31.28 30.42 31.03 30.54 31.03 30.75 31.28 30.63 31.28 30.42"/><polygon class="cls-175" points="32.48 29.82 32.23 29.95 32.23 30.16 32.48 30.03 32.48 29.82"/><polygon class="cls-176" points="33.68 29.23 33.43 29.35 33.43 29.56 33.68 29.44 33.68 29.23"/><polygon class="cls-177" points="34.88 28.63 34.62 28.75 34.62 28.97 34.88 28.84 34.88 28.63"/><polygon class="cls-178" points="36.07 28.03 35.82 28.16 35.82 28.37 36.07 28.25 36.07 28.03"/><polygon class="cls-179" points="37.27 27.44 37.02 27.56 37.02 27.77 37.27 27.65 37.27 27.44"/><polygon class="cls-180" points="31.28 31.65 31.03 31.77 31.03 31.98 31.28 31.86 31.28 31.65"/><polygon class="cls-181" points="32.48 31.05 32.23 31.18 32.23 31.39 32.48 31.26 32.48 31.05"/><polygon class="cls-182" points="33.68 30.45 33.43 30.58 33.43 30.79 33.68 30.66 33.68 30.45"/><polygon class="cls-183" points="34.88 29.86 34.62 29.98 34.62 30.19 34.88 30.07 34.88 29.86"/><polygon class="cls-184" points="36.07 29.26 35.82 29.39 35.82 29.6 36.07 29.47 36.07 29.26"/><polygon class="cls-185" points="37.27 28.67 37.02 28.79 37.02 29 37.27 28.88 37.27 28.67"/><polygon class="cls-186" points="30 31.1 28.72 31.73 28.72 32.62 30 31.98 30 31.1"/><polygon class="cls-187" points="30.44 31.79 37.55 28.26 37.46 27.9 30.44 31.39 30.44 31.79"/><polygon class="cls-188" points="26.83 35.18 27 35.26 27 36.55 26.83 36.47 26.83 35.18"/><polygon class="cls-189" points="26.51 35.02 26.67 35.1 26.67 36.39 26.51 36.31 26.51 35.02"/><polygon class="cls-190" points="26.19 34.86 26.35 34.94 26.35 36.23 26.19 36.15 26.19 34.86"/><polygon class="cls-191" points="25.86 34.7 26.03 34.78 26.03 36.07 25.86 35.99 25.86 34.7"/><polygon class="cls-192" points="25.54 34.54 25.7 34.62 25.7 35.91 25.54 35.83 25.54 34.54"/><polygon class="cls-193" points="25.22 34.38 25.38 34.46 25.38 35.75 25.22 35.67 25.22 34.38"/><polygon class="cls-194" points="24.9 34.22 25.06 34.3 25.06 35.59 24.9 35.51 24.9 34.22"/><polygon class="cls-195" points="24.57 34.06 24.73 34.15 24.73 35.44 24.57 35.35 24.57 34.06"/><polygon class="cls-196" points="24.25 33.91 24.41 33.99 24.41 35.28 24.25 35.2 24.25 33.91"/><polygon class="cls-197" points="23.93 33.75 24.09 33.83 24.09 35.12 23.93 35.04 23.93 33.75"/><polygon class="cls-198" points="23.6 33.59 23.76 33.67 23.76 34.96 23.6 34.88 23.6 33.59"/><polygon class="cls-199" points="23.28 33.43 23.44 33.51 23.44 34.8 23.28 34.72 23.28 33.43"/><polygon class="cls-200" points="22.95 33.27 23.12 33.35 23.12 34.64 22.95 34.56 22.95 33.27"/><polygon class="cls-201" points="22.63 33.11 22.79 33.19 22.79 34.48 22.63 34.4 22.63 33.11"/><polygon class="cls-202" points="22.31 32.95 22.47 33.03 22.47 34.32 22.31 34.24 22.31 32.95"/><polygon class="cls-203" points="21.98 32.79 22.15 32.88 22.15 34.16 21.98 34.08 21.98 32.79"/><polygon class="cls-204" points="21.66 32.64 21.82 32.72 21.82 34.01 21.66 33.92 21.66 32.64"/><polygon class="cls-205" points="21.34 32.48 21.5 32.56 21.5 33.85 21.34 33.77 21.34 32.48"/><polygon class="cls-206" points="21.02 32.32 21.18 32.4 21.18 33.69 21.02 33.61 21.02 32.32"/><polygon class="cls-207" points="20.69 32.16 20.85 32.24 20.85 33.53 20.69 33.45 20.69 32.16"/><polygon class="cls-208" points="20.37 32 20.53 32.08 20.53 33.37 20.37 33.29 20.37 32"/><polygon class="cls-209" points="22.55 34.46 21.98 34.15 21.98 32.55 22.55 32.81 22.55 34.46"/><polygon class="cls-210" points="25.43 35.95 24.86 35.64 24.86 34.04 25.43 34.3 25.43 35.95"/><polygon class="cls-211" points="23.31 11.17 23.31 10.98 30.54 7.69 35.02 9.64 35.02 9.84 27.8 13.45 23.31 11.17"/><polygon class="cls-212" points="23.31 11.17 23.31 10.98 30.54 7.69 35.02 9.64 27.8 13.26 27.8 13.45 23.31 11.17"/><polygon class="cls-213" points="23.31 10.98 30.54 7.37 35.02 9.64 27.8 13.26 23.31 10.98"/><polygon class="cls-211" points="35.3 10 36.53 9.38 37.3 9.78 36.06 10.39 35.3 10"/><polygon class="cls-214" points="37.17 9.98 36.08 9.41 36.15 9.3 37.23 9.87 37.17 9.98"/><rect class="cls-215" x="36.3" y="9.17" width="0.13" height="1.22" transform="translate(10.79 37.42) rotate(-62.27)"/><rect class="cls-216" x="36.02" y="9.3" width="0.13" height="1.22" transform="translate(10.51 37.23) rotate(-62.25)"/><polygon class="cls-217" points="36.3 10.4 35.22 9.83 35.28 9.71 36.37 10.28 36.3 10.4"/><polygon class="cls-211" points="29.35 6.98 30.58 6.36 31.35 6.75 30.12 7.37 29.35 6.98"/><rect class="cls-218" x="30.69" y="6.07" width="0.13" height="1.13" transform="translate(10.58 30.78) rotate(-62.29)"/><rect class="cls-219" x="30.42" y="6.24" width="0.13" height="1.09" transform="translate(10.3 30.62) rotate(-62.29)"/><rect class="cls-220" x="30.12" y="6.36" width="0.13" height="1.11" transform="translate(10.02 30.42) rotate(-62.27)"/><polygon class="cls-221" points="30.36 7.37 29.36 6.84 29.42 6.73 30.42 7.25 30.36 7.37"/><polygon class="cls-211" points="27.05 14.11 28.28 13.49 29.05 13.88 27.81 14.5 27.05 14.11"/><polygon class="cls-222" points="28.92 14.09 27.83 13.52 27.9 13.41 28.98 13.97 28.92 14.09"/><polygon class="cls-223" points="28.63 14.23 27.55 13.66 27.61 13.54 28.69 14.11 28.63 14.23"/><polygon class="cls-224" points="28.34 14.37 27.26 13.8 27.32 13.68 28.4 14.25 28.34 14.37"/><polygon class="cls-225" points="28.05 14.51 26.97 13.94 27.03 13.82 28.12 14.39 28.05 14.51"/><polygon class="cls-211" points="21.03 11.09 22.27 10.47 23.04 10.86 21.8 11.48 21.03 11.09"/><polygon class="cls-226" points="22.91 11.07 21.91 10.54 21.97 10.43 22.97 10.95 22.91 11.07"/><rect class="cls-227" x="22.1" y="10.35" width="0.13" height="1.09" transform="translate(2.21 25.45) rotate(-62.29)"/><rect class="cls-228" x="21.8" y="10.47" width="0.13" height="1.11" transform="translate(1.93 25.25) rotate(-62.27)"/><rect class="cls-229" x="21.51" y="10.59" width="0.13" height="1.14" transform="translate(1.66 25.06) rotate(-62.27)"/><path class="cls-230" d="M46.06,32.62a1.33,1.33,0,0,1,1.07,0l11.2,5c.15.07.08.61.08.7s-.07.2-.22.27l-17,8.49a1.35,1.35,0,0,1-1.06,0L29,41.71c-.15-.07-.22-.17-.22-.26v-.59Z"/><path class="cls-5" d="M46.06,32.08a1.33,1.33,0,0,1,1.07,0l11.06,5.48c.29.14.29.38,0,.52l-17,8.5a1.35,1.35,0,0,1-1.06,0L29,41.16c-.29-.14-.3-.37,0-.52Z"/><polygon class="cls-231" points="31.67 40.02 46.35 32.68 56.95 37.96 42.47 45.2 31.67 40.02"/><path class="cls-7" d="M36.38,43.19c0,.2-.26.36-.59.36s-.6-.16-.6-.36.27-.36.6-.36S36.38,43,36.38,43.19Z"/><path class="cls-8" d="M45.28,39.33c0,.43-.76.78-1.68.78s-1.68-.35-1.68-.78.75-.78,1.68-.78S45.28,38.9,45.28,39.33Z"/><path class="cls-9" d="M44.3,39.33c0,.18-.31.33-.7.33s-.71-.15-.71-.33.32-.33.71-.33S44.3,39.15,44.3,39.33Z"/><path class="cls-7" d="M52.12,35c0,.08-.1.14-.22.14s-.23-.06-.23-.14.1-.13.23-.13S52.12,34.88,52.12,35Z"/><path class="cls-232" d="M17,25.36a.13.13,0,0,1-.14-.13V2.4A.39.39,0,0,1,17.51,2l12,6.08a.13.13,0,0,1,.06.18.14.14,0,0,1-.18.06l-12-6.09a.18.18,0,0,0-.16,0,.16.16,0,0,0-.06.15V25.23A.13.13,0,0,1,17,25.36Z"/><path class="cls-233" d="M11.47,34.34a.82.82,0,0,1,.65,0l15.37,7.42c.09,0,.05.7.05.76a.18.18,0,0,1-.13.16L17.05,47.87a.82.82,0,0,1-.65,0L1.05,40.22c-.09,0-.14-.1-.14-.16s0-.69,0-.69Z"/><path class="cls-5" d="M11.47,34a.82.82,0,0,1,.65,0L27.41,41.7c.17.09.17.23,0,.32L17.05,47.2a.82.82,0,0,1-.65,0L1.05,39.56c-.18-.09-.18-.23,0-.32Z"/><polygon class="cls-7" points="13.71 43.6 14.7 43.1 15.65 43.58 14.68 44.07 13.71 43.6"/><polygon class="cls-7" points="14.81 43.05 15.79 42.55 16.75 43.03 15.77 43.52 14.81 43.05"/><polygon class="cls-7" points="15.9 42.5 16.89 42 17.84 42.48 16.87 42.97 15.9 42.5"/><polygon class="cls-7" points="17 41.95 17.98 41.45 18.94 41.93 17.96 42.42 17 41.95"/><polygon class="cls-7" points="18.1 41.4 19.08 40.9 20.03 41.38 19.06 41.87 18.1 41.4"/><polygon class="cls-7" points="19.73 40.58 20.71 40.08 21.66 40.56 20.69 41.06 19.73 40.58"/><polygon class="cls-7" points="12.66 43.07 13.64 42.57 14.6 43.05 13.62 43.54 12.66 43.07"/><polygon class="cls-7" points="13.75 42.52 14.73 42.02 15.69 42.5 14.71 42.99 13.75 42.52"/><polygon class="cls-7" points="14.85 41.97 15.83 41.47 16.79 41.95 15.81 42.44 14.85 41.97"/><polygon class="cls-7" points="15.94 41.42 16.93 40.92 17.88 41.4 16.9 41.89 15.94 41.42"/><polygon class="cls-7" points="17.04 40.87 18.02 40.37 18.98 40.85 18 41.34 17.04 40.87"/><polygon class="cls-7" points="18.67 40.06 19.65 39.55 20.61 40.03 19.63 40.53 18.67 40.06"/><polygon class="cls-7" points="12.69 41.99 13.68 41.49 14.63 41.97 13.66 42.47 12.69 41.99"/><polygon class="cls-7" points="13.79 41.44 14.77 40.94 15.73 41.42 14.75 41.91 13.79 41.44"/><polygon class="cls-7" points="14.88 40.89 15.87 40.39 16.82 40.87 15.85 41.36 14.88 40.89"/><polygon class="cls-7" points="15.98 40.34 16.96 39.84 17.92 40.32 16.94 40.81 15.98 40.34"/><polygon class="cls-7" points="17.61 39.53 18.59 39.02 19.55 39.51 18.57 40 17.61 39.53"/><polygon class="cls-7" points="11.64 41.47 12.62 40.96 13.58 41.44 12.6 41.94 11.64 41.47"/><polygon class="cls-7" points="12.73 40.91 13.72 40.41 14.67 40.89 13.69 41.39 12.73 40.91"/><polygon class="cls-7" points="13.83 40.37 14.81 39.86 15.77 40.34 14.79 40.84 13.83 40.37"/><polygon class="cls-7" points="14.92 39.81 15.91 39.31 16.86 39.79 15.88 40.29 14.92 39.81"/><polygon class="cls-7" points="16.55 39 17.54 38.5 18.49 38.98 17.52 39.47 16.55 39"/><polygon class="cls-7" points="10.58 40.94 11.56 40.43 12.52 40.91 11.54 41.41 10.58 40.94"/><polygon class="cls-7" points="11.68 40.39 12.66 39.88 13.61 40.37 12.64 40.86 11.68 40.39"/><polygon class="cls-7" points="12.77 39.84 13.75 39.33 14.71 39.81 13.73 40.31 12.77 39.84"/><polygon class="cls-7" points="13.87 39.29 14.85 38.78 15.8 39.27 14.83 39.76 13.87 39.29"/><polygon class="cls-7" points="15.5 38.47 16.48 37.97 17.44 38.45 16.46 38.94 15.5 38.47"/><polygon class="cls-7" points="9.52 40.41 10.51 39.91 11.46 40.39 10.48 40.88 9.52 40.41"/><polygon class="cls-7" points="10.62 39.86 11.6 39.35 12.56 39.84 11.58 40.33 10.62 39.86"/><polygon class="cls-7" points="11.71 39.31 12.7 38.81 13.65 39.29 12.68 39.78 11.71 39.31"/><polygon class="cls-7" points="12.81 38.76 13.79 38.26 14.75 38.74 13.77 39.23 12.81 38.76"/><polygon class="cls-7" points="14.44 37.94 15.42 37.44 16.38 37.92 15.4 38.41 14.44 37.94"/><polygon class="cls-7" points="7.37 40.43 8.35 39.93 13.54 42.52 12.56 43.02 7.37 40.43"/><polygon class="cls-7" points="8.46 39.88 9.45 39.38 10.4 39.86 9.43 40.35 8.46 39.88"/><polygon class="cls-7" points="9.56 39.33 10.54 38.83 11.5 39.31 10.52 39.8 9.56 39.33"/><polygon class="cls-7" points="10.66 38.78 11.64 38.28 12.6 38.76 11.62 39.25 10.66 38.78"/><polygon class="cls-7" points="11.75 38.23 12.73 37.73 13.69 38.21 12.71 38.7 11.75 38.23"/><polygon class="cls-7" points="13.38 37.41 14.36 36.91 15.32 37.39 14.34 37.89 13.38 37.41"/><polygon class="cls-7" points="6.31 39.9 7.29 39.4 8.25 39.88 7.27 40.37 6.31 39.9"/><polygon class="cls-7" points="8.5 38.8 9.49 38.3 10.44 38.78 9.46 39.27 8.5 38.8"/><polygon class="cls-7" points="9.6 38.25 10.58 37.75 11.54 38.23 10.56 38.72 9.6 38.25"/><polygon class="cls-7" points="10.69 37.7 11.68 37.2 12.63 37.68 11.66 38.17 10.69 37.7"/><polygon class="cls-7" points="12.32 36.89 13.31 36.38 14.26 36.87 13.29 37.36 12.32 36.89"/><polygon class="cls-7" points="5.25 39.38 6.24 38.87 7.19 39.35 6.22 39.85 5.25 39.38"/><polygon class="cls-7" points="8.54 37.73 9.52 37.22 10.48 37.7 9.5 38.2 8.54 37.73"/><polygon class="cls-7" points="9.64 37.17 10.62 36.67 11.57 37.15 10.6 37.65 9.64 37.17"/><polygon class="cls-7" points="11.27 36.36 12.25 35.85 13.21 36.34 12.23 36.83 11.27 36.36"/><polygon class="cls-7" points="4.2 38.85 5.18 38.34 6.14 38.83 5.16 39.32 4.2 38.85"/><polygon class="cls-7" points="5.29 38.3 6.28 37.79 9.35 39.33 8.37 39.82 5.29 38.3"/><polygon class="cls-7" points="6.39 37.75 7.37 37.24 9.38 38.25 8.41 38.75 6.39 37.75"/><polygon class="cls-7" points="7.48 37.2 8.47 36.69 9.42 37.17 8.45 37.67 7.48 37.2"/><polygon class="cls-7" points="8.58 36.65 9.56 36.14 10.52 36.62 9.54 37.12 8.58 36.65"/><polygon class="cls-7" points="10.21 35.83 11.19 35.33 12.15 35.81 11.17 36.3 10.21 35.83"/><polygon class="cls-7" points="16.89 45.19 17.87 44.69 18.83 45.17 17.85 45.66 16.89 45.19"/><polygon class="cls-7" points="15.87 43.59 16.85 43.08 19.92 44.62 18.95 45.11 15.87 43.59"/><polygon class="cls-7" points="18.02 43.56 19 43.06 21.02 44.07 20.04 44.56 18.02 43.56"/><polygon class="cls-7" points="20.18 43.54 21.16 43.04 22.11 43.52 21.14 44.01 20.18 43.54"/><polygon class="cls-7" points="21.27 42.99 22.25 42.49 23.21 42.97 22.23 43.46 21.27 42.99"/><polygon class="cls-7" points="22.9 42.17 23.88 41.67 24.84 42.15 23.86 42.65 22.9 42.17"/><polygon class="cls-7" points="15.83 44.66 16.81 44.16 17.77 44.64 16.79 45.13 15.83 44.66"/><polygon class="cls-7" points="19.12 43.01 20.1 42.51 21.06 42.99 20.08 43.48 19.12 43.01"/><polygon class="cls-7" points="20.21 42.46 21.2 41.96 22.15 42.44 21.18 42.93 20.21 42.46"/><polygon class="cls-7" points="21.84 41.65 22.83 41.14 23.78 41.63 22.81 42.12 21.84 41.65"/><polygon class="cls-7" points="14.77 44.14 15.76 43.63 16.71 44.11 15.74 44.61 14.77 44.14"/><polygon class="cls-7" points="15.87 43.59 16.85 43.08 17.81 43.56 16.83 44.06 15.87 43.59"/><polygon class="cls-7" points="16.96 43.03 17.95 42.53 18.9 43.01 17.93 43.51 16.96 43.03"/><polygon class="cls-7" points="18.06 42.48 19.04 41.98 20 42.46 19.02 42.96 18.06 42.48"/><polygon class="cls-7" points="19.16 41.93 20.14 41.43 21.09 41.91 20.12 42.41 19.16 41.93"/><polygon class="cls-7" points="20.79 41.12 21.77 40.62 22.73 41.1 21.75 41.59 20.79 41.12"/><path class="cls-234" d="M11.93,23.57a1.46,1.46,0,0,1,.28-.15.29.29,0,0,1,.24,0l15.09,7.51a.66.66,0,0,1,.33.53v9.86a.22.22,0,0,1-.09.2c-.19.11-.31.19-.41.14L12.45,34a.64.64,0,0,1-.33-.52Z"/><path class="cls-5" d="M11.88,23.75a.22.22,0,0,1,.33-.21L27.3,31.05a.66.66,0,0,1,.33.53v9.86a.21.21,0,0,1-.33.2L12.21,34.13a.64.64,0,0,1-.33-.52Z"/><polygon class="cls-235" points="12.32 33.53 12.32 24.38 27.18 31.77 27.18 40.92 12.32 33.53"/><path class="cls-7" d="M20.3,27.87c0,.08,0,.16-.05.18a.14.14,0,0,1-.16-.1.13.13,0,0,1,.06-.17C20.21,27.75,20.28,27.8,20.3,27.87Z"/><path class="cls-236" d="M32.9,8.06a3.08,3.08,0,0,0,0-.52c-.29-2.11-2-3.69-3.58-3.55a1.48,1.48,0,0,0-1.35,1.06,1.68,1.68,0,0,0-1.2-.32c-.76.12-1,.78-1,1.59a.91.91,0,0,0-.6-.22c-.49,0-.63.5-.6,1a1.5,1.5,0,0,0,.74,1.14h0l.05,0,0,0h0l6.94,3.53.37.19h0l.06,0h0c.88.34,1.69,0,1.74-1.18A2.67,2.67,0,0,0,32.9,8.06Z"/><path class="cls-237" d="M32.94,8.06l-1.39.69-1.14-.68v2.77l1.94,1,.37.19h0l.06,0h0c.36.13,0,.62,0,.62s1.29-.66,1.4-.73a1.36,1.36,0,0,0,.59-1.15A2.79,2.79,0,0,0,32.94,8.06Z"/><path class="cls-238" d="M28.29,6.83l-.66-.39-.1-1.62a1.66,1.66,0,0,0-.79-.09,1.94,1.94,0,0,0-.53.19c-.41.21-1.3.72-1.3.72s.45.45.25.46c-.49,0-.63.5-.6,1a1.5,1.5,0,0,0,.74,1.14h0l.05,0,0,0h0l2.88,1.46Z"/><path class="cls-239" d="M32.94,8.06l-1.39.69L27.63,6.44,27.53,5l-.33-.12s1.09-.54,1.42-.73A1.65,1.65,0,0,1,29.29,4c1.57-.14,3.29,1.44,3.58,3.55a3.08,3.08,0,0,1,0,.52Z"/><polygon class="cls-240" points="23.95 8.94 31.45 12.75 29.32 7.97 25.59 7.13 23.95 8.94"/><path class="cls-241" d="M31.52,8.23c.26,1.87-1.1,2.79-2.61,2.92s-2.35-2-2.48-3.44.11-2.91,1.5-3C29.51,4.54,31.23,6.12,31.52,8.23Z"/><path class="cls-242" d="M25.05,8c.11.62-.55,1.23-1,1a1.49,1.49,0,0,1-.82-1.18c0-.5.11-1,.6-1S25,7.49,25.05,8Z"/><path class="cls-243" d="M33.39,11.51a1.34,1.34,0,0,1-2,1.2A2,2,0,0,1,30,10.47c.14-1,.5-1.87,1.41-1.75A2.68,2.68,0,0,1,33.39,11.51Z"/><path class="cls-244" d="M27.61,7.48A1.54,1.54,0,0,1,26,9.26c-.92.08-1.52-1.12-1.6-2s.17-1.67,1-1.8S27.43,6.2,27.61,7.48Z"/><path class="cls-245" d="M43.6,39.37a.13.13,0,0,1-.14-.13V16.51a.7.7,0,0,0-.34-.55L34,11.34a.13.13,0,0,1-.06-.18.14.14,0,0,1,.18-.06l9.1,4.62a1,1,0,0,1,.49.79V39.24A.13.13,0,0,1,43.6,39.37Z"/><path class="cls-8" d="M15.46,40.43c0,.43-.75.78-1.68.78s-1.68-.35-1.68-.78.75-.78,1.68-.78S15.46,40,15.46,40.43Z"/><path class="cls-9" d="M14.48,40.43c0,.18-.31.33-.7.33s-.71-.15-.71-.33.32-.32.71-.32S14.48,40.25,14.48,40.43Z"/><path class="cls-246" d="M13.76,40.48a.13.13,0,0,1-.13-.13V17.63a1,1,0,0,1,.49-.8L27.57,10a.13.13,0,0,1,.18.06.14.14,0,0,1-.06.18L14.24,17.07a.7.7,0,0,0-.34.56V40.35A.13.13,0,0,1,13.76,40.48Z"/></svg>