<svg xmlns="http://www.w3.org/2000/svg" width="550" height="400" stroke="#aaa" fill="none" stroke-linejoin="round" stroke-width="21"><path d="M200.98 257.694A198.14 198.14 0 0 0 212 258c79.53 0 144-47.458 144-106 0-11.41-2.45-22.397-6.98-32.694C423.4 123.45 482 169.187 482 225c0 27.13-13.845 51.878-36.62 70.627C447.833 313.334 459.04 332.79 479 354c-33.49 2.527-66.68-6.623-99.57-27.453C366.3 329.444 352.402 331 338 331c-64.03 0-118.3-30.763-137.02-73.306z"/><path d="M170.57 253.547c-32.9 20.83-66.08 29.98-99.57 27.453 19.96-21.21 31.167-40.666 33.62-58.373C81.845 203.878 68 179.13 68 152c0-58.542 64.47-106 144-106s144 47.458 144 106-64.47 106-144 106c-14.402 0-28.3-1.556-41.43-4.453z"/></svg>
